<mxfile host="drawio-plugin" modified="2022-02-15T19:17:05.781Z" agent="5.0 (Windows NT 6.1; Win64; x64) AppleWebKit/537.36 (KHTML, like Gecko) Chrome/89.0.4389.114 Safari/537.36" etag="C4LBG6SEe6V5Er-zUeS1" version="15.5.4" type="embed"><diagram name="Page-1" id="e56a1550-8fbb-45ad-956c-1786394a9013"><mxGraphModel dx="348" dy="457" grid="1" gridSize="10" guides="1" tooltips="1" connect="1" arrows="1" fold="1" page="1" pageScale="1" pageWidth="1100" pageHeight="850" background="none" math="0" shadow="0"><root><mxCell id="0"/><mxCell id="1" parent="0"/><mxCell id="2e49270ec7c68f3f-80" value="User" style="swimlane;html=1;fontStyle=0;childLayout=stackLayout;horizontal=1;startSize=26;fillColor=#6a00ff;horizontalStack=0;resizeParent=1;resizeLast=0;collapsible=1;marginBottom=0;swimlaneFillColor=none;align=center;rounded=0;shadow=0;comic=0;labelBackgroundColor=none;strokeWidth=1;fontFamily=Verdana;fontSize=14;fontColor=#ffffff;labelBorderColor=none;strokeColor=#3700CC;" parent="1" vertex="1"><mxGeometry x="30" y="358" width="160" height="628" as="geometry"/></mxCell><mxCell id="2e49270ec7c68f3f-81" value="id" style="shape=partialRectangle;top=0;left=0;right=0;bottom=1;html=1;align=left;verticalAlign=middle;fillColor=none;spacingLeft=34;spacingRight=4;whiteSpace=wrap;overflow=hidden;rotatable=0;points=[[0,0.5],[1,0.5]];portConstraint=eastwest;dropTarget=0;fontStyle=5;" parent="2e49270ec7c68f3f-80" vertex="1"><mxGeometry y="26" width="160" height="30" as="geometry"/></mxCell><mxCell id="2e49270ec7c68f3f-82" value="PK" style="shape=partialRectangle;top=0;left=0;bottom=0;html=1;fillColor=none;align=left;verticalAlign=middle;spacingLeft=4;spacingRight=4;whiteSpace=wrap;overflow=hidden;rotatable=0;points=[];portConstraint=eastwest;part=1;" parent="2e49270ec7c68f3f-81" vertex="1" connectable="0"><mxGeometry width="30" height="30" as="geometry"/></mxCell><mxCell id="2e49270ec7c68f3f-83" value="username" style="shape=partialRectangle;top=0;left=0;right=0;bottom=0;html=1;align=left;verticalAlign=top;fillColor=none;spacingLeft=34;spacingRight=4;whiteSpace=wrap;overflow=hidden;rotatable=0;points=[[0,0.5],[1,0.5]];portConstraint=eastwest;dropTarget=0;" parent="2e49270ec7c68f3f-80" vertex="1"><mxGeometry y="56" width="160" height="26" as="geometry"/></mxCell><mxCell id="2e49270ec7c68f3f-84" value="" style="shape=partialRectangle;top=0;left=0;bottom=0;html=1;fillColor=none;align=left;verticalAlign=top;spacingLeft=4;spacingRight=4;whiteSpace=wrap;overflow=hidden;rotatable=0;points=[];portConstraint=eastwest;part=1;" parent="2e49270ec7c68f3f-83" vertex="1" connectable="0"><mxGeometry width="30" height="26" as="geometry"/></mxCell><mxCell id="2e49270ec7c68f3f-85" value="email" style="shape=partialRectangle;top=0;left=0;right=0;bottom=0;html=1;align=left;verticalAlign=top;fillColor=none;spacingLeft=34;spacingRight=4;whiteSpace=wrap;overflow=hidden;rotatable=0;points=[[0,0.5],[1,0.5]];portConstraint=eastwest;dropTarget=0;" parent="2e49270ec7c68f3f-80" vertex="1"><mxGeometry y="82" width="160" height="26" as="geometry"/></mxCell><mxCell id="2e49270ec7c68f3f-86" value="" style="shape=partialRectangle;top=0;left=0;bottom=0;html=1;fillColor=none;align=left;verticalAlign=top;spacingLeft=4;spacingRight=4;whiteSpace=wrap;overflow=hidden;rotatable=0;points=[];portConstraint=eastwest;part=1;" parent="2e49270ec7c68f3f-85" vertex="1" connectable="0"><mxGeometry width="30" height="26" as="geometry"/></mxCell><mxCell id="2e49270ec7c68f3f-87" value="first_name" style="shape=partialRectangle;top=0;left=0;right=0;bottom=0;html=1;align=left;verticalAlign=top;fillColor=none;spacingLeft=34;spacingRight=4;whiteSpace=wrap;overflow=hidden;rotatable=0;points=[[0,0.5],[1,0.5]];portConstraint=eastwest;dropTarget=0;" parent="2e49270ec7c68f3f-80" vertex="1"><mxGeometry y="108" width="160" height="26" as="geometry"/></mxCell><mxCell id="2e49270ec7c68f3f-88" value="" style="shape=partialRectangle;top=0;left=0;bottom=0;html=1;fillColor=none;align=left;verticalAlign=top;spacingLeft=4;spacingRight=4;whiteSpace=wrap;overflow=hidden;rotatable=0;points=[];portConstraint=eastwest;part=1;" parent="2e49270ec7c68f3f-87" vertex="1" connectable="0"><mxGeometry width="30" height="26" as="geometry"/></mxCell><mxCell id="AsCRV-HQO47f_vVxdAg8-1" value="last_name" style="shape=partialRectangle;top=0;left=0;right=0;bottom=0;html=1;align=left;verticalAlign=top;fillColor=none;spacingLeft=34;spacingRight=4;whiteSpace=wrap;overflow=hidden;rotatable=0;points=[[0,0.5],[1,0.5]];portConstraint=eastwest;dropTarget=0;" parent="2e49270ec7c68f3f-80" vertex="1"><mxGeometry y="134" width="160" height="26" as="geometry"/></mxCell><mxCell id="AsCRV-HQO47f_vVxdAg8-2" value="" style="shape=partialRectangle;top=0;left=0;bottom=0;html=1;fillColor=none;align=left;verticalAlign=top;spacingLeft=4;spacingRight=4;whiteSpace=wrap;overflow=hidden;rotatable=0;points=[];portConstraint=eastwest;part=1;" parent="AsCRV-HQO47f_vVxdAg8-1" vertex="1" connectable="0"><mxGeometry width="30" height="26" as="geometry"/></mxCell><mxCell id="AsCRV-HQO47f_vVxdAg8-3" value="is_staff" style="shape=partialRectangle;top=0;left=0;right=0;bottom=0;html=1;align=left;verticalAlign=top;fillColor=none;spacingLeft=34;spacingRight=4;whiteSpace=wrap;overflow=hidden;rotatable=0;points=[[0,0.5],[1,0.5]];portConstraint=eastwest;dropTarget=0;" parent="2e49270ec7c68f3f-80" vertex="1"><mxGeometry y="160" width="160" height="26" as="geometry"/></mxCell><mxCell id="AsCRV-HQO47f_vVxdAg8-4" value="" style="shape=partialRectangle;top=0;left=0;bottom=0;html=1;fillColor=none;align=left;verticalAlign=top;spacingLeft=4;spacingRight=4;whiteSpace=wrap;overflow=hidden;rotatable=0;points=[];portConstraint=eastwest;part=1;" parent="AsCRV-HQO47f_vVxdAg8-3" vertex="1" connectable="0"><mxGeometry width="30" height="26" as="geometry"/></mxCell><mxCell id="AsCRV-HQO47f_vVxdAg8-5" value="is_active" style="shape=partialRectangle;top=0;left=0;right=0;bottom=0;html=1;align=left;verticalAlign=top;fillColor=none;spacingLeft=34;spacingRight=4;whiteSpace=wrap;overflow=hidden;rotatable=0;points=[[0,0.5],[1,0.5]];portConstraint=eastwest;dropTarget=0;" parent="2e49270ec7c68f3f-80" vertex="1"><mxGeometry y="186" width="160" height="26" as="geometry"/></mxCell><mxCell id="AsCRV-HQO47f_vVxdAg8-6" value="" style="shape=partialRectangle;top=0;left=0;bottom=0;html=1;fillColor=none;align=left;verticalAlign=top;spacingLeft=4;spacingRight=4;whiteSpace=wrap;overflow=hidden;rotatable=0;points=[];portConstraint=eastwest;part=1;" parent="AsCRV-HQO47f_vVxdAg8-5" vertex="1" connectable="0"><mxGeometry width="30" height="26" as="geometry"/></mxCell><mxCell id="AsCRV-HQO47f_vVxdAg8-7" value="date_joined" style="shape=partialRectangle;top=0;left=0;right=0;bottom=0;html=1;align=left;verticalAlign=top;fillColor=none;spacingLeft=34;spacingRight=4;whiteSpace=wrap;overflow=hidden;rotatable=0;points=[[0,0.5],[1,0.5]];portConstraint=eastwest;dropTarget=0;" parent="2e49270ec7c68f3f-80" vertex="1"><mxGeometry y="212" width="160" height="26" as="geometry"/></mxCell><mxCell id="AsCRV-HQO47f_vVxdAg8-8" value="" style="shape=partialRectangle;top=0;left=0;bottom=0;html=1;fillColor=none;align=left;verticalAlign=top;spacingLeft=4;spacingRight=4;whiteSpace=wrap;overflow=hidden;rotatable=0;points=[];portConstraint=eastwest;part=1;" parent="AsCRV-HQO47f_vVxdAg8-7" vertex="1" connectable="0"><mxGeometry width="30" height="26" as="geometry"/></mxCell><mxCell id="AsCRV-HQO47f_vVxdAg8-9" value="password" style="shape=partialRectangle;top=0;left=0;right=0;bottom=0;html=1;align=left;verticalAlign=top;fillColor=none;spacingLeft=34;spacingRight=4;whiteSpace=wrap;overflow=hidden;rotatable=0;points=[[0,0.5],[1,0.5]];portConstraint=eastwest;dropTarget=0;" parent="2e49270ec7c68f3f-80" vertex="1"><mxGeometry y="238" width="160" height="26" as="geometry"/></mxCell><mxCell id="AsCRV-HQO47f_vVxdAg8-10" value="" style="shape=partialRectangle;top=0;left=0;bottom=0;html=1;fillColor=none;align=left;verticalAlign=top;spacingLeft=4;spacingRight=4;whiteSpace=wrap;overflow=hidden;rotatable=0;points=[];portConstraint=eastwest;part=1;" parent="AsCRV-HQO47f_vVxdAg8-9" vertex="1" connectable="0"><mxGeometry width="30" height="26" as="geometry"/></mxCell><mxCell id="AsCRV-HQO47f_vVxdAg8-11" value="last_login" style="shape=partialRectangle;top=0;left=0;right=0;bottom=0;html=1;align=left;verticalAlign=top;fillColor=none;spacingLeft=34;spacingRight=4;whiteSpace=wrap;overflow=hidden;rotatable=0;points=[[0,0.5],[1,0.5]];portConstraint=eastwest;dropTarget=0;" parent="2e49270ec7c68f3f-80" vertex="1"><mxGeometry y="264" width="160" height="26" as="geometry"/></mxCell><mxCell id="AsCRV-HQO47f_vVxdAg8-12" value="" style="shape=partialRectangle;top=0;left=0;bottom=0;html=1;fillColor=none;align=left;verticalAlign=top;spacingLeft=4;spacingRight=4;whiteSpace=wrap;overflow=hidden;rotatable=0;points=[];portConstraint=eastwest;part=1;" parent="AsCRV-HQO47f_vVxdAg8-11" vertex="1" connectable="0"><mxGeometry width="30" height="26" as="geometry"/></mxCell><mxCell id="AsCRV-HQO47f_vVxdAg8-13" value="is_superuser" style="shape=partialRectangle;top=0;left=0;right=0;bottom=0;html=1;align=left;verticalAlign=top;fillColor=none;spacingLeft=34;spacingRight=4;whiteSpace=wrap;overflow=hidden;rotatable=0;points=[[0,0.5],[1,0.5]];portConstraint=eastwest;dropTarget=0;" parent="2e49270ec7c68f3f-80" vertex="1"><mxGeometry y="290" width="160" height="26" as="geometry"/></mxCell><mxCell id="AsCRV-HQO47f_vVxdAg8-14" value="" style="shape=partialRectangle;top=0;left=0;bottom=0;html=1;fillColor=none;align=left;verticalAlign=top;spacingLeft=4;spacingRight=4;whiteSpace=wrap;overflow=hidden;rotatable=0;points=[];portConstraint=eastwest;part=1;" parent="AsCRV-HQO47f_vVxdAg8-13" vertex="1" connectable="0"><mxGeometry width="30" height="26" as="geometry"/></mxCell><mxCell id="AsCRV-HQO47f_vVxdAg8-15" value="groups" style="shape=partialRectangle;top=0;left=0;right=0;bottom=0;html=1;align=left;verticalAlign=top;fillColor=none;spacingLeft=34;spacingRight=4;whiteSpace=wrap;overflow=hidden;rotatable=0;points=[[0,0.5],[1,0.5]];portConstraint=eastwest;dropTarget=0;" parent="2e49270ec7c68f3f-80" vertex="1"><mxGeometry y="316" width="160" height="26" as="geometry"/></mxCell><mxCell id="AsCRV-HQO47f_vVxdAg8-16" value="" style="shape=partialRectangle;top=0;left=0;bottom=0;html=1;fillColor=none;align=left;verticalAlign=top;spacingLeft=4;spacingRight=4;whiteSpace=wrap;overflow=hidden;rotatable=0;points=[];portConstraint=eastwest;part=1;" parent="AsCRV-HQO47f_vVxdAg8-15" vertex="1" connectable="0"><mxGeometry width="30" height="26" as="geometry"/></mxCell><mxCell id="AsCRV-HQO47f_vVxdAg8-17" value="user_permissions" style="shape=partialRectangle;top=0;left=0;right=0;bottom=0;html=1;align=left;verticalAlign=top;fillColor=none;spacingLeft=34;spacingRight=4;whiteSpace=wrap;overflow=hidden;rotatable=0;points=[[0,0.5],[1,0.5]];portConstraint=eastwest;dropTarget=0;" parent="2e49270ec7c68f3f-80" vertex="1"><mxGeometry y="342" width="160" height="26" as="geometry"/></mxCell><mxCell id="AsCRV-HQO47f_vVxdAg8-18" value="" style="shape=partialRectangle;top=0;left=0;bottom=0;html=1;fillColor=none;align=left;verticalAlign=top;spacingLeft=4;spacingRight=4;whiteSpace=wrap;overflow=hidden;rotatable=0;points=[];portConstraint=eastwest;part=1;" parent="AsCRV-HQO47f_vVxdAg8-17" vertex="1" connectable="0"><mxGeometry width="30" height="26" as="geometry"/></mxCell><mxCell id="AsCRV-HQO47f_vVxdAg8-19" value="birthday" style="shape=partialRectangle;top=0;left=0;right=0;bottom=0;html=1;align=left;verticalAlign=top;fillColor=none;spacingLeft=34;spacingRight=4;whiteSpace=wrap;overflow=hidden;rotatable=0;points=[[0,0.5],[1,0.5]];portConstraint=eastwest;dropTarget=0;" parent="2e49270ec7c68f3f-80" vertex="1"><mxGeometry y="368" width="160" height="26" as="geometry"/></mxCell><mxCell id="AsCRV-HQO47f_vVxdAg8-20" value="" style="shape=partialRectangle;top=0;left=0;bottom=0;html=1;fillColor=none;align=left;verticalAlign=top;spacingLeft=4;spacingRight=4;whiteSpace=wrap;overflow=hidden;rotatable=0;points=[];portConstraint=eastwest;part=1;" parent="AsCRV-HQO47f_vVxdAg8-19" vertex="1" connectable="0"><mxGeometry width="30" height="26" as="geometry"/></mxCell><mxCell id="AsCRV-HQO47f_vVxdAg8-21" value="phone" style="shape=partialRectangle;top=0;left=0;right=0;bottom=0;html=1;align=left;verticalAlign=top;fillColor=none;spacingLeft=34;spacingRight=4;whiteSpace=wrap;overflow=hidden;rotatable=0;points=[[0,0.5],[1,0.5]];portConstraint=eastwest;dropTarget=0;" parent="2e49270ec7c68f3f-80" vertex="1"><mxGeometry y="394" width="160" height="26" as="geometry"/></mxCell><mxCell id="AsCRV-HQO47f_vVxdAg8-22" value="" style="shape=partialRectangle;top=0;left=0;bottom=0;html=1;fillColor=none;align=left;verticalAlign=top;spacingLeft=4;spacingRight=4;whiteSpace=wrap;overflow=hidden;rotatable=0;points=[];portConstraint=eastwest;part=1;" parent="AsCRV-HQO47f_vVxdAg8-21" vertex="1" connectable="0"><mxGeometry width="30" height="26" as="geometry"/></mxCell><mxCell id="AsCRV-HQO47f_vVxdAg8-23" value="gender" style="shape=partialRectangle;top=0;left=0;right=0;bottom=0;html=1;align=left;verticalAlign=top;fillColor=none;spacingLeft=34;spacingRight=4;whiteSpace=wrap;overflow=hidden;rotatable=0;points=[[0,0.5],[1,0.5]];portConstraint=eastwest;dropTarget=0;" parent="2e49270ec7c68f3f-80" vertex="1"><mxGeometry y="420" width="160" height="26" as="geometry"/></mxCell><mxCell id="AsCRV-HQO47f_vVxdAg8-24" value="" style="shape=partialRectangle;top=0;left=0;bottom=0;html=1;fillColor=none;align=left;verticalAlign=top;spacingLeft=4;spacingRight=4;whiteSpace=wrap;overflow=hidden;rotatable=0;points=[];portConstraint=eastwest;part=1;" parent="AsCRV-HQO47f_vVxdAg8-23" vertex="1" connectable="0"><mxGeometry width="30" height="26" as="geometry"/></mxCell><mxCell id="AsCRV-HQO47f_vVxdAg8-25" value="country" style="shape=partialRectangle;top=0;left=0;right=0;bottom=0;html=1;align=left;verticalAlign=top;fillColor=none;spacingLeft=34;spacingRight=4;whiteSpace=wrap;overflow=hidden;rotatable=0;points=[[0,0.5],[1,0.5]];portConstraint=eastwest;dropTarget=0;" parent="2e49270ec7c68f3f-80" vertex="1"><mxGeometry y="446" width="160" height="26" as="geometry"/></mxCell><mxCell id="AsCRV-HQO47f_vVxdAg8-26" value="" style="shape=partialRectangle;top=0;left=0;bottom=0;html=1;fillColor=none;align=left;verticalAlign=top;spacingLeft=4;spacingRight=4;whiteSpace=wrap;overflow=hidden;rotatable=0;points=[];portConstraint=eastwest;part=1;" parent="AsCRV-HQO47f_vVxdAg8-25" vertex="1" connectable="0"><mxGeometry width="30" height="26" as="geometry"/></mxCell><mxCell id="AsCRV-HQO47f_vVxdAg8-27" value="region" style="shape=partialRectangle;top=0;left=0;right=0;bottom=0;html=1;align=left;verticalAlign=top;fillColor=none;spacingLeft=34;spacingRight=4;whiteSpace=wrap;overflow=hidden;rotatable=0;points=[[0,0.5],[1,0.5]];portConstraint=eastwest;dropTarget=0;" parent="2e49270ec7c68f3f-80" vertex="1"><mxGeometry y="472" width="160" height="26" as="geometry"/></mxCell><mxCell id="AsCRV-HQO47f_vVxdAg8-28" value="" style="shape=partialRectangle;top=0;left=0;bottom=0;html=1;fillColor=none;align=left;verticalAlign=top;spacingLeft=4;spacingRight=4;whiteSpace=wrap;overflow=hidden;rotatable=0;points=[];portConstraint=eastwest;part=1;" parent="AsCRV-HQO47f_vVxdAg8-27" vertex="1" connectable="0"><mxGeometry width="30" height="26" as="geometry"/></mxCell><mxCell id="AsCRV-HQO47f_vVxdAg8-29" value="city" style="shape=partialRectangle;top=0;left=0;right=0;bottom=0;html=1;align=left;verticalAlign=top;fillColor=none;spacingLeft=34;spacingRight=4;whiteSpace=wrap;overflow=hidden;rotatable=0;points=[[0,0.5],[1,0.5]];portConstraint=eastwest;dropTarget=0;" parent="2e49270ec7c68f3f-80" vertex="1"><mxGeometry y="498" width="160" height="26" as="geometry"/></mxCell><mxCell id="AsCRV-HQO47f_vVxdAg8-30" value="" style="shape=partialRectangle;top=0;left=0;bottom=0;html=1;fillColor=none;align=left;verticalAlign=top;spacingLeft=4;spacingRight=4;whiteSpace=wrap;overflow=hidden;rotatable=0;points=[];portConstraint=eastwest;part=1;" parent="AsCRV-HQO47f_vVxdAg8-29" vertex="1" connectable="0"><mxGeometry width="30" height="26" as="geometry"/></mxCell><mxCell id="AsCRV-HQO47f_vVxdAg8-31" value="address_line" style="shape=partialRectangle;top=0;left=0;right=0;bottom=0;html=1;align=left;verticalAlign=top;fillColor=none;spacingLeft=34;spacingRight=4;whiteSpace=wrap;overflow=hidden;rotatable=0;points=[[0,0.5],[1,0.5]];portConstraint=eastwest;dropTarget=0;" parent="2e49270ec7c68f3f-80" vertex="1"><mxGeometry y="524" width="160" height="26" as="geometry"/></mxCell><mxCell id="AsCRV-HQO47f_vVxdAg8-32" value="" style="shape=partialRectangle;top=0;left=0;bottom=0;html=1;fillColor=none;align=left;verticalAlign=top;spacingLeft=4;spacingRight=4;whiteSpace=wrap;overflow=hidden;rotatable=0;points=[];portConstraint=eastwest;part=1;" parent="AsCRV-HQO47f_vVxdAg8-31" vertex="1" connectable="0"><mxGeometry width="30" height="26" as="geometry"/></mxCell><mxCell id="3_mhkbO8bV44COBoSds1-3" value="address_line" style="shape=partialRectangle;top=0;left=0;right=0;bottom=0;html=1;align=left;verticalAlign=top;fillColor=none;spacingLeft=34;spacingRight=4;whiteSpace=wrap;overflow=hidden;rotatable=0;points=[[0,0.5],[1,0.5]];portConstraint=eastwest;dropTarget=0;" parent="2e49270ec7c68f3f-80" vertex="1"><mxGeometry y="550" width="160" height="26" as="geometry"/></mxCell><mxCell id="3_mhkbO8bV44COBoSds1-4" value="" style="shape=partialRectangle;top=0;left=0;bottom=0;html=1;fillColor=none;align=left;verticalAlign=top;spacingLeft=4;spacingRight=4;whiteSpace=wrap;overflow=hidden;rotatable=0;points=[];portConstraint=eastwest;part=1;" parent="3_mhkbO8bV44COBoSds1-3" vertex="1" connectable="0"><mxGeometry width="30" height="26" as="geometry"/></mxCell><mxCell id="AsCRV-HQO47f_vVxdAg8-33" value="middle_initial" style="shape=partialRectangle;top=0;left=0;right=0;bottom=0;html=1;align=left;verticalAlign=top;fillColor=none;spacingLeft=34;spacingRight=4;whiteSpace=wrap;overflow=hidden;rotatable=0;points=[[0,0.5],[1,0.5]];portConstraint=eastwest;dropTarget=0;" parent="2e49270ec7c68f3f-80" vertex="1"><mxGeometry y="576" width="160" height="26" as="geometry"/></mxCell><mxCell id="AsCRV-HQO47f_vVxdAg8-34" value="" style="shape=partialRectangle;top=0;left=0;bottom=0;html=1;fillColor=none;align=left;verticalAlign=top;spacingLeft=4;spacingRight=4;whiteSpace=wrap;overflow=hidden;rotatable=0;points=[];portConstraint=eastwest;part=1;" parent="AsCRV-HQO47f_vVxdAg8-33" vertex="1" connectable="0"><mxGeometry width="30" height="26" as="geometry"/></mxCell><mxCell id="AsCRV-HQO47f_vVxdAg8-195" value="image (url)" style="shape=partialRectangle;top=0;left=0;right=0;bottom=0;html=1;align=left;verticalAlign=top;fillColor=none;spacingLeft=34;spacingRight=4;whiteSpace=wrap;overflow=hidden;rotatable=0;points=[[0,0.5],[1,0.5]];portConstraint=eastwest;dropTarget=0;" parent="2e49270ec7c68f3f-80" vertex="1"><mxGeometry y="602" width="160" height="26" as="geometry"/></mxCell><mxCell id="AsCRV-HQO47f_vVxdAg8-196" value="" style="shape=partialRectangle;top=0;left=0;bottom=0;html=1;fillColor=none;align=left;verticalAlign=top;spacingLeft=4;spacingRight=4;whiteSpace=wrap;overflow=hidden;rotatable=0;points=[];portConstraint=eastwest;part=1;" parent="AsCRV-HQO47f_vVxdAg8-195" vertex="1" connectable="0"><mxGeometry width="30" height="26" as="geometry"/></mxCell><mxCell id="AsCRV-HQO47f_vVxdAg8-40" value="Category" style="shape=table;startSize=30;container=1;collapsible=1;childLayout=tableLayout;fixedRows=1;rowLines=0;fontStyle=1;align=center;resizeLast=1;" parent="1" vertex="1"><mxGeometry x="240" y="80" width="180" height="180" as="geometry"/></mxCell><mxCell id="AsCRV-HQO47f_vVxdAg8-41" value="" style="shape=tableRow;horizontal=0;startSize=0;swimlaneHead=0;swimlaneBody=0;fillColor=none;collapsible=0;dropTarget=0;points=[[0,0.5],[1,0.5]];portConstraint=eastwest;top=0;left=0;right=0;bottom=1;" parent="AsCRV-HQO47f_vVxdAg8-40" vertex="1"><mxGeometry y="30" width="180" height="30" as="geometry"/></mxCell><mxCell id="AsCRV-HQO47f_vVxdAg8-42" value="PK" style="shape=partialRectangle;connectable=0;fillColor=none;top=0;left=0;bottom=0;right=0;fontStyle=1;overflow=hidden;" parent="AsCRV-HQO47f_vVxdAg8-41" vertex="1"><mxGeometry width="30" height="30" as="geometry"><mxRectangle width="30" height="30" as="alternateBounds"/></mxGeometry></mxCell><mxCell id="AsCRV-HQO47f_vVxdAg8-43" value="ID" style="shape=partialRectangle;connectable=0;fillColor=none;top=0;left=0;bottom=0;right=0;align=left;spacingLeft=6;fontStyle=5;overflow=hidden;" parent="AsCRV-HQO47f_vVxdAg8-41" vertex="1"><mxGeometry x="30" width="150" height="30" as="geometry"><mxRectangle width="150" height="30" as="alternateBounds"/></mxGeometry></mxCell><mxCell id="AsCRV-HQO47f_vVxdAg8-44" value="" style="shape=tableRow;horizontal=0;startSize=0;swimlaneHead=0;swimlaneBody=0;fillColor=none;collapsible=0;dropTarget=0;points=[[0,0.5],[1,0.5]];portConstraint=eastwest;top=0;left=0;right=0;bottom=0;" parent="AsCRV-HQO47f_vVxdAg8-40" vertex="1"><mxGeometry y="60" width="180" height="30" as="geometry"/></mxCell><mxCell id="AsCRV-HQO47f_vVxdAg8-45" value="" style="shape=partialRectangle;connectable=0;fillColor=none;top=0;left=0;bottom=0;right=0;editable=1;overflow=hidden;" parent="AsCRV-HQO47f_vVxdAg8-44" vertex="1"><mxGeometry width="30" height="30" as="geometry"><mxRectangle width="30" height="30" as="alternateBounds"/></mxGeometry></mxCell><mxCell id="AsCRV-HQO47f_vVxdAg8-46" value="title" style="shape=partialRectangle;connectable=0;fillColor=none;top=0;left=0;bottom=0;right=0;align=left;spacingLeft=6;overflow=hidden;" parent="AsCRV-HQO47f_vVxdAg8-44" vertex="1"><mxGeometry x="30" width="150" height="30" as="geometry"><mxRectangle width="150" height="30" as="alternateBounds"/></mxGeometry></mxCell><mxCell id="AsCRV-HQO47f_vVxdAg8-47" value="" style="shape=tableRow;horizontal=0;startSize=0;swimlaneHead=0;swimlaneBody=0;fillColor=none;collapsible=0;dropTarget=0;points=[[0,0.5],[1,0.5]];portConstraint=eastwest;top=0;left=0;right=0;bottom=0;" parent="AsCRV-HQO47f_vVxdAg8-40" vertex="1"><mxGeometry y="90" width="180" height="30" as="geometry"/></mxCell><mxCell id="AsCRV-HQO47f_vVxdAg8-48" value="" style="shape=partialRectangle;connectable=0;fillColor=none;top=0;left=0;bottom=0;right=0;editable=1;overflow=hidden;" parent="AsCRV-HQO47f_vVxdAg8-47" vertex="1"><mxGeometry width="30" height="30" as="geometry"><mxRectangle width="30" height="30" as="alternateBounds"/></mxGeometry></mxCell><mxCell id="AsCRV-HQO47f_vVxdAg8-49" value="description" style="shape=partialRectangle;connectable=0;fillColor=none;top=0;left=0;bottom=0;right=0;align=left;spacingLeft=6;overflow=hidden;" parent="AsCRV-HQO47f_vVxdAg8-47" vertex="1"><mxGeometry x="30" width="150" height="30" as="geometry"><mxRectangle width="150" height="30" as="alternateBounds"/></mxGeometry></mxCell><mxCell id="AsCRV-HQO47f_vVxdAg8-171" value="" style="shape=tableRow;horizontal=0;startSize=0;swimlaneHead=0;swimlaneBody=0;fillColor=none;collapsible=0;dropTarget=0;points=[[0,0.5],[1,0.5]];portConstraint=eastwest;top=0;left=0;right=0;bottom=0;" parent="AsCRV-HQO47f_vVxdAg8-40" vertex="1"><mxGeometry y="120" width="180" height="30" as="geometry"/></mxCell><mxCell id="AsCRV-HQO47f_vVxdAg8-172" value="" style="shape=partialRectangle;connectable=0;fillColor=none;top=0;left=0;bottom=0;right=0;editable=1;overflow=hidden;" parent="AsCRV-HQO47f_vVxdAg8-171" vertex="1"><mxGeometry width="30" height="30" as="geometry"><mxRectangle width="30" height="30" as="alternateBounds"/></mxGeometry></mxCell><mxCell id="AsCRV-HQO47f_vVxdAg8-173" value="created_at" style="shape=partialRectangle;connectable=0;fillColor=none;top=0;left=0;bottom=0;right=0;align=left;spacingLeft=6;overflow=hidden;" parent="AsCRV-HQO47f_vVxdAg8-171" vertex="1"><mxGeometry x="30" width="150" height="30" as="geometry"><mxRectangle width="150" height="30" as="alternateBounds"/></mxGeometry></mxCell><mxCell id="AsCRV-HQO47f_vVxdAg8-50" value="" style="shape=tableRow;horizontal=0;startSize=0;swimlaneHead=0;swimlaneBody=0;fillColor=none;collapsible=0;dropTarget=0;points=[[0,0.5],[1,0.5]];portConstraint=eastwest;top=0;left=0;right=0;bottom=0;" parent="AsCRV-HQO47f_vVxdAg8-40" vertex="1"><mxGeometry y="150" width="180" height="30" as="geometry"/></mxCell><mxCell id="AsCRV-HQO47f_vVxdAg8-51" value="" style="shape=partialRectangle;connectable=0;fillColor=none;top=0;left=0;bottom=0;right=0;editable=1;overflow=hidden;" parent="AsCRV-HQO47f_vVxdAg8-50" vertex="1"><mxGeometry width="30" height="30" as="geometry"><mxRectangle width="30" height="30" as="alternateBounds"/></mxGeometry></mxCell><mxCell id="AsCRV-HQO47f_vVxdAg8-52" value="" style="shape=partialRectangle;connectable=0;fillColor=none;top=0;left=0;bottom=0;right=0;align=left;spacingLeft=6;overflow=hidden;" parent="AsCRV-HQO47f_vVxdAg8-50" vertex="1"><mxGeometry x="30" width="150" height="30" as="geometry"><mxRectangle width="150" height="30" as="alternateBounds"/></mxGeometry></mxCell><mxCell id="AsCRV-HQO47f_vVxdAg8-53" value="SubCategory" style="shape=table;startSize=30;container=1;collapsible=1;childLayout=tableLayout;fixedRows=1;rowLines=0;fontStyle=1;align=center;resizeLast=1;" parent="1" vertex="1"><mxGeometry x="480" y="80" width="180" height="210" as="geometry"/></mxCell><mxCell id="AsCRV-HQO47f_vVxdAg8-54" value="" style="shape=tableRow;horizontal=0;startSize=0;swimlaneHead=0;swimlaneBody=0;fillColor=none;collapsible=0;dropTarget=0;points=[[0,0.5],[1,0.5]];portConstraint=eastwest;top=0;left=0;right=0;bottom=1;" parent="AsCRV-HQO47f_vVxdAg8-53" vertex="1"><mxGeometry y="30" width="180" height="30" as="geometry"/></mxCell><mxCell id="AsCRV-HQO47f_vVxdAg8-55" value="PK" style="shape=partialRectangle;connectable=0;fillColor=none;top=0;left=0;bottom=0;right=0;fontStyle=1;overflow=hidden;" parent="AsCRV-HQO47f_vVxdAg8-54" vertex="1"><mxGeometry width="30" height="30" as="geometry"><mxRectangle width="30" height="30" as="alternateBounds"/></mxGeometry></mxCell><mxCell id="AsCRV-HQO47f_vVxdAg8-56" value="ID" style="shape=partialRectangle;connectable=0;fillColor=none;top=0;left=0;bottom=0;right=0;align=left;spacingLeft=6;fontStyle=5;overflow=hidden;" parent="AsCRV-HQO47f_vVxdAg8-54" vertex="1"><mxGeometry x="30" width="150" height="30" as="geometry"><mxRectangle width="150" height="30" as="alternateBounds"/></mxGeometry></mxCell><mxCell id="AsCRV-HQO47f_vVxdAg8-57" value="" style="shape=tableRow;horizontal=0;startSize=0;swimlaneHead=0;swimlaneBody=0;fillColor=none;collapsible=0;dropTarget=0;points=[[0,0.5],[1,0.5]];portConstraint=eastwest;top=0;left=0;right=0;bottom=0;" parent="AsCRV-HQO47f_vVxdAg8-53" vertex="1"><mxGeometry y="60" width="180" height="30" as="geometry"/></mxCell><mxCell id="AsCRV-HQO47f_vVxdAg8-58" value="" style="shape=partialRectangle;connectable=0;fillColor=none;top=0;left=0;bottom=0;right=0;editable=1;overflow=hidden;" parent="AsCRV-HQO47f_vVxdAg8-57" vertex="1"><mxGeometry width="30" height="30" as="geometry"><mxRectangle width="30" height="30" as="alternateBounds"/></mxGeometry></mxCell><mxCell id="AsCRV-HQO47f_vVxdAg8-59" value="title" style="shape=partialRectangle;connectable=0;fillColor=none;top=0;left=0;bottom=0;right=0;align=left;spacingLeft=6;overflow=hidden;" parent="AsCRV-HQO47f_vVxdAg8-57" vertex="1"><mxGeometry x="30" width="150" height="30" as="geometry"><mxRectangle width="150" height="30" as="alternateBounds"/></mxGeometry></mxCell><mxCell id="AsCRV-HQO47f_vVxdAg8-60" value="" style="shape=tableRow;horizontal=0;startSize=0;swimlaneHead=0;swimlaneBody=0;fillColor=none;collapsible=0;dropTarget=0;points=[[0,0.5],[1,0.5]];portConstraint=eastwest;top=0;left=0;right=0;bottom=0;" parent="AsCRV-HQO47f_vVxdAg8-53" vertex="1"><mxGeometry y="90" width="180" height="30" as="geometry"/></mxCell><mxCell id="AsCRV-HQO47f_vVxdAg8-61" value="" style="shape=partialRectangle;connectable=0;fillColor=none;top=0;left=0;bottom=0;right=0;editable=1;overflow=hidden;" parent="AsCRV-HQO47f_vVxdAg8-60" vertex="1"><mxGeometry width="30" height="30" as="geometry"><mxRectangle width="30" height="30" as="alternateBounds"/></mxGeometry></mxCell><mxCell id="AsCRV-HQO47f_vVxdAg8-62" value="description" style="shape=partialRectangle;connectable=0;fillColor=none;top=0;left=0;bottom=0;right=0;align=left;spacingLeft=6;overflow=hidden;" parent="AsCRV-HQO47f_vVxdAg8-60" vertex="1"><mxGeometry x="30" width="150" height="30" as="geometry"><mxRectangle width="150" height="30" as="alternateBounds"/></mxGeometry></mxCell><mxCell id="AsCRV-HQO47f_vVxdAg8-163" value="" style="shape=tableRow;horizontal=0;startSize=0;swimlaneHead=0;swimlaneBody=0;fillColor=none;collapsible=0;dropTarget=0;points=[[0,0.5],[1,0.5]];portConstraint=eastwest;top=0;left=0;right=0;bottom=0;" parent="AsCRV-HQO47f_vVxdAg8-53" vertex="1"><mxGeometry y="120" width="180" height="30" as="geometry"/></mxCell><mxCell id="AsCRV-HQO47f_vVxdAg8-164" value="" style="shape=partialRectangle;connectable=0;fillColor=none;top=0;left=0;bottom=0;right=0;editable=1;overflow=hidden;" parent="AsCRV-HQO47f_vVxdAg8-163" vertex="1"><mxGeometry width="30" height="30" as="geometry"><mxRectangle width="30" height="30" as="alternateBounds"/></mxGeometry></mxCell><mxCell id="AsCRV-HQO47f_vVxdAg8-165" value="created_at" style="shape=partialRectangle;connectable=0;fillColor=none;top=0;left=0;bottom=0;right=0;align=left;spacingLeft=6;overflow=hidden;" parent="AsCRV-HQO47f_vVxdAg8-163" vertex="1"><mxGeometry x="30" width="150" height="30" as="geometry"><mxRectangle width="150" height="30" as="alternateBounds"/></mxGeometry></mxCell><mxCell id="AsCRV-HQO47f_vVxdAg8-166" value="" style="shape=tableRow;horizontal=0;startSize=0;swimlaneHead=0;swimlaneBody=0;fillColor=none;collapsible=0;dropTarget=0;points=[[0,0.5],[1,0.5]];portConstraint=eastwest;top=0;left=0;right=0;bottom=0;" parent="AsCRV-HQO47f_vVxdAg8-53" vertex="1"><mxGeometry y="150" width="180" height="30" as="geometry"/></mxCell><mxCell id="AsCRV-HQO47f_vVxdAg8-167" value="" style="shape=partialRectangle;connectable=0;fillColor=none;top=0;left=0;bottom=0;right=0;editable=1;overflow=hidden;" parent="AsCRV-HQO47f_vVxdAg8-166" vertex="1"><mxGeometry width="30" height="30" as="geometry"><mxRectangle width="30" height="30" as="alternateBounds"/></mxGeometry></mxCell><mxCell id="AsCRV-HQO47f_vVxdAg8-168" value="updated_at" style="shape=partialRectangle;connectable=0;fillColor=none;top=0;left=0;bottom=0;right=0;align=left;spacingLeft=6;overflow=hidden;" parent="AsCRV-HQO47f_vVxdAg8-166" vertex="1"><mxGeometry x="30" width="150" height="30" as="geometry"><mxRectangle width="150" height="30" as="alternateBounds"/></mxGeometry></mxCell><mxCell id="AsCRV-HQO47f_vVxdAg8-63" value="" style="shape=tableRow;horizontal=0;startSize=0;swimlaneHead=0;swimlaneBody=0;fillColor=none;collapsible=0;dropTarget=0;points=[[0,0.5],[1,0.5]];portConstraint=eastwest;top=0;left=0;right=0;bottom=0;" parent="AsCRV-HQO47f_vVxdAg8-53" vertex="1"><mxGeometry y="180" width="180" height="30" as="geometry"/></mxCell><mxCell id="AsCRV-HQO47f_vVxdAg8-64" value="FK" style="shape=partialRectangle;connectable=0;fillColor=none;top=0;left=0;bottom=0;right=0;editable=1;overflow=hidden;fontStyle=1" parent="AsCRV-HQO47f_vVxdAg8-63" vertex="1"><mxGeometry width="30" height="30" as="geometry"><mxRectangle width="30" height="30" as="alternateBounds"/></mxGeometry></mxCell><mxCell id="AsCRV-HQO47f_vVxdAg8-65" value="category" style="shape=partialRectangle;connectable=0;fillColor=none;top=0;left=0;bottom=0;right=0;align=left;spacingLeft=6;overflow=hidden;" parent="AsCRV-HQO47f_vVxdAg8-63" vertex="1"><mxGeometry x="30" width="150" height="30" as="geometry"><mxRectangle width="150" height="30" as="alternateBounds"/></mxGeometry></mxCell><mxCell id="AsCRV-HQO47f_vVxdAg8-66" style="edgeStyle=orthogonalEdgeStyle;rounded=1;orthogonalLoop=1;jettySize=auto;html=1;exitX=0;exitY=0.5;exitDx=0;exitDy=0;entryX=1;entryY=0.5;entryDx=0;entryDy=0;" parent="1" source="AsCRV-HQO47f_vVxdAg8-63" target="AsCRV-HQO47f_vVxdAg8-41" edge="1"><mxGeometry relative="1" as="geometry"><mxPoint x="450" y="130" as="targetPoint"/></mxGeometry></mxCell><mxCell id="AsCRV-HQO47f_vVxdAg8-67" value="Product" style="shape=table;startSize=30;container=1;collapsible=1;childLayout=tableLayout;fixedRows=1;rowLines=0;fontStyle=1;align=center;resizeLast=1;" parent="1" vertex="1"><mxGeometry x="790" y="80" width="180" height="450" as="geometry"/></mxCell><mxCell id="AsCRV-HQO47f_vVxdAg8-68" value="" style="shape=tableRow;horizontal=0;startSize=0;swimlaneHead=0;swimlaneBody=0;fillColor=none;collapsible=0;dropTarget=0;points=[[0,0.5],[1,0.5]];portConstraint=eastwest;top=0;left=0;right=0;bottom=1;" parent="AsCRV-HQO47f_vVxdAg8-67" vertex="1"><mxGeometry y="30" width="180" height="30" as="geometry"/></mxCell><mxCell id="AsCRV-HQO47f_vVxdAg8-69" value="PK" style="shape=partialRectangle;connectable=0;fillColor=none;top=0;left=0;bottom=0;right=0;fontStyle=1;overflow=hidden;" parent="AsCRV-HQO47f_vVxdAg8-68" vertex="1"><mxGeometry width="30" height="30" as="geometry"><mxRectangle width="30" height="30" as="alternateBounds"/></mxGeometry></mxCell><mxCell id="AsCRV-HQO47f_vVxdAg8-70" value="ID" style="shape=partialRectangle;connectable=0;fillColor=none;top=0;left=0;bottom=0;right=0;align=left;spacingLeft=6;fontStyle=5;overflow=hidden;" parent="AsCRV-HQO47f_vVxdAg8-68" vertex="1"><mxGeometry x="30" width="150" height="30" as="geometry"><mxRectangle width="150" height="30" as="alternateBounds"/></mxGeometry></mxCell><mxCell id="AsCRV-HQO47f_vVxdAg8-71" value="" style="shape=tableRow;horizontal=0;startSize=0;swimlaneHead=0;swimlaneBody=0;fillColor=none;collapsible=0;dropTarget=0;points=[[0,0.5],[1,0.5]];portConstraint=eastwest;top=0;left=0;right=0;bottom=0;" parent="AsCRV-HQO47f_vVxdAg8-67" vertex="1"><mxGeometry y="60" width="180" height="30" as="geometry"/></mxCell><mxCell id="AsCRV-HQO47f_vVxdAg8-72" value="" style="shape=partialRectangle;connectable=0;fillColor=none;top=0;left=0;bottom=0;right=0;editable=1;overflow=hidden;" parent="AsCRV-HQO47f_vVxdAg8-71" vertex="1"><mxGeometry width="30" height="30" as="geometry"><mxRectangle width="30" height="30" as="alternateBounds"/></mxGeometry></mxCell><mxCell id="AsCRV-HQO47f_vVxdAg8-73" value="title" style="shape=partialRectangle;connectable=0;fillColor=none;top=0;left=0;bottom=0;right=0;align=left;spacingLeft=6;overflow=hidden;" parent="AsCRV-HQO47f_vVxdAg8-71" vertex="1"><mxGeometry x="30" width="150" height="30" as="geometry"><mxRectangle width="150" height="30" as="alternateBounds"/></mxGeometry></mxCell><mxCell id="AsCRV-HQO47f_vVxdAg8-74" value="" style="shape=tableRow;horizontal=0;startSize=0;swimlaneHead=0;swimlaneBody=0;fillColor=none;collapsible=0;dropTarget=0;points=[[0,0.5],[1,0.5]];portConstraint=eastwest;top=0;left=0;right=0;bottom=0;" parent="AsCRV-HQO47f_vVxdAg8-67" vertex="1"><mxGeometry y="90" width="180" height="30" as="geometry"/></mxCell><mxCell id="AsCRV-HQO47f_vVxdAg8-75" value="" style="shape=partialRectangle;connectable=0;fillColor=none;top=0;left=0;bottom=0;right=0;editable=1;overflow=hidden;" parent="AsCRV-HQO47f_vVxdAg8-74" vertex="1"><mxGeometry width="30" height="30" as="geometry"><mxRectangle width="30" height="30" as="alternateBounds"/></mxGeometry></mxCell><mxCell id="AsCRV-HQO47f_vVxdAg8-76" value="description" style="shape=partialRectangle;connectable=0;fillColor=none;top=0;left=0;bottom=0;right=0;align=left;spacingLeft=6;overflow=hidden;" parent="AsCRV-HQO47f_vVxdAg8-74" vertex="1"><mxGeometry x="30" width="150" height="30" as="geometry"><mxRectangle width="150" height="30" as="alternateBounds"/></mxGeometry></mxCell><mxCell id="AsCRV-HQO47f_vVxdAg8-77" value="" style="shape=tableRow;horizontal=0;startSize=0;swimlaneHead=0;swimlaneBody=0;fillColor=none;collapsible=0;dropTarget=0;points=[[0,0.5],[1,0.5]];portConstraint=eastwest;top=0;left=0;right=0;bottom=0;" parent="AsCRV-HQO47f_vVxdAg8-67" vertex="1"><mxGeometry y="120" width="180" height="30" as="geometry"/></mxCell><mxCell id="AsCRV-HQO47f_vVxdAg8-78" value="" style="shape=partialRectangle;connectable=0;fillColor=none;top=0;left=0;bottom=0;right=0;editable=1;overflow=hidden;fontStyle=1" parent="AsCRV-HQO47f_vVxdAg8-77" vertex="1"><mxGeometry width="30" height="30" as="geometry"><mxRectangle width="30" height="30" as="alternateBounds"/></mxGeometry></mxCell><mxCell id="AsCRV-HQO47f_vVxdAg8-79" value="brand" style="shape=partialRectangle;connectable=0;fillColor=none;top=0;left=0;bottom=0;right=0;align=left;spacingLeft=6;overflow=hidden;" parent="AsCRV-HQO47f_vVxdAg8-77" vertex="1"><mxGeometry x="30" width="150" height="30" as="geometry"><mxRectangle width="150" height="30" as="alternateBounds"/></mxGeometry></mxCell><mxCell id="AsCRV-HQO47f_vVxdAg8-102" value="" style="shape=tableRow;horizontal=0;startSize=0;swimlaneHead=0;swimlaneBody=0;fillColor=none;collapsible=0;dropTarget=0;points=[[0,0.5],[1,0.5]];portConstraint=eastwest;top=0;left=0;right=0;bottom=0;" parent="AsCRV-HQO47f_vVxdAg8-67" vertex="1"><mxGeometry y="150" width="180" height="30" as="geometry"/></mxCell><mxCell id="AsCRV-HQO47f_vVxdAg8-103" value="M2M" style="shape=partialRectangle;connectable=0;fillColor=none;top=0;left=0;bottom=0;right=0;editable=1;overflow=hidden;fontStyle=1" parent="AsCRV-HQO47f_vVxdAg8-102" vertex="1"><mxGeometry width="30" height="30" as="geometry"><mxRectangle width="30" height="30" as="alternateBounds"/></mxGeometry></mxCell><mxCell id="AsCRV-HQO47f_vVxdAg8-104" value="image" style="shape=partialRectangle;connectable=0;fillColor=none;top=0;left=0;bottom=0;right=0;align=left;spacingLeft=6;overflow=hidden;" parent="AsCRV-HQO47f_vVxdAg8-102" vertex="1"><mxGeometry x="30" width="150" height="30" as="geometry"><mxRectangle width="150" height="30" as="alternateBounds"/></mxGeometry></mxCell><mxCell id="AsCRV-HQO47f_vVxdAg8-108" value="" style="shape=tableRow;horizontal=0;startSize=0;swimlaneHead=0;swimlaneBody=0;fillColor=none;collapsible=0;dropTarget=0;points=[[0,0.5],[1,0.5]];portConstraint=eastwest;top=0;left=0;right=0;bottom=0;" parent="AsCRV-HQO47f_vVxdAg8-67" vertex="1"><mxGeometry y="180" width="180" height="30" as="geometry"/></mxCell><mxCell id="AsCRV-HQO47f_vVxdAg8-109" value="" style="shape=partialRectangle;connectable=0;fillColor=none;top=0;left=0;bottom=0;right=0;editable=1;overflow=hidden;fontStyle=1" parent="AsCRV-HQO47f_vVxdAg8-108" vertex="1"><mxGeometry width="30" height="30" as="geometry"><mxRectangle width="30" height="30" as="alternateBounds"/></mxGeometry></mxCell><mxCell id="AsCRV-HQO47f_vVxdAg8-110" value="price" style="shape=partialRectangle;connectable=0;fillColor=none;top=0;left=0;bottom=0;right=0;align=left;spacingLeft=6;overflow=hidden;" parent="AsCRV-HQO47f_vVxdAg8-108" vertex="1"><mxGeometry x="30" width="150" height="30" as="geometry"><mxRectangle width="150" height="30" as="alternateBounds"/></mxGeometry></mxCell><mxCell id="AsCRV-HQO47f_vVxdAg8-111" value="" style="shape=tableRow;horizontal=0;startSize=0;swimlaneHead=0;swimlaneBody=0;fillColor=none;collapsible=0;dropTarget=0;points=[[0,0.5],[1,0.5]];portConstraint=eastwest;top=0;left=0;right=0;bottom=0;" parent="AsCRV-HQO47f_vVxdAg8-67" vertex="1"><mxGeometry y="210" width="180" height="30" as="geometry"/></mxCell><mxCell id="AsCRV-HQO47f_vVxdAg8-112" value="" style="shape=partialRectangle;connectable=0;fillColor=none;top=0;left=0;bottom=0;right=0;editable=1;overflow=hidden;fontStyle=1" parent="AsCRV-HQO47f_vVxdAg8-111" vertex="1"><mxGeometry width="30" height="30" as="geometry"><mxRectangle width="30" height="30" as="alternateBounds"/></mxGeometry></mxCell><mxCell id="AsCRV-HQO47f_vVxdAg8-113" value="sale" style="shape=partialRectangle;connectable=0;fillColor=none;top=0;left=0;bottom=0;right=0;align=left;spacingLeft=6;overflow=hidden;" parent="AsCRV-HQO47f_vVxdAg8-111" vertex="1"><mxGeometry x="30" width="150" height="30" as="geometry"><mxRectangle width="150" height="30" as="alternateBounds"/></mxGeometry></mxCell><mxCell id="AsCRV-HQO47f_vVxdAg8-117" value="" style="shape=tableRow;horizontal=0;startSize=0;swimlaneHead=0;swimlaneBody=0;fillColor=none;collapsible=0;dropTarget=0;points=[[0,0.5],[1,0.5]];portConstraint=eastwest;top=0;left=0;right=0;bottom=0;" parent="AsCRV-HQO47f_vVxdAg8-67" vertex="1"><mxGeometry y="240" width="180" height="30" as="geometry"/></mxCell><mxCell id="AsCRV-HQO47f_vVxdAg8-118" value="" style="shape=partialRectangle;connectable=0;fillColor=none;top=0;left=0;bottom=0;right=0;editable=1;overflow=hidden;fontStyle=1" parent="AsCRV-HQO47f_vVxdAg8-117" vertex="1"><mxGeometry width="30" height="30" as="geometry"><mxRectangle width="30" height="30" as="alternateBounds"/></mxGeometry></mxCell><mxCell id="AsCRV-HQO47f_vVxdAg8-119" value="created_at" style="shape=partialRectangle;connectable=0;fillColor=none;top=0;left=0;bottom=0;right=0;align=left;spacingLeft=6;overflow=hidden;" parent="AsCRV-HQO47f_vVxdAg8-117" vertex="1"><mxGeometry x="30" width="150" height="30" as="geometry"><mxRectangle width="150" height="30" as="alternateBounds"/></mxGeometry></mxCell><mxCell id="AsCRV-HQO47f_vVxdAg8-120" value="" style="shape=tableRow;horizontal=0;startSize=0;swimlaneHead=0;swimlaneBody=0;fillColor=none;collapsible=0;dropTarget=0;points=[[0,0.5],[1,0.5]];portConstraint=eastwest;top=0;left=0;right=0;bottom=0;" parent="AsCRV-HQO47f_vVxdAg8-67" vertex="1"><mxGeometry y="270" width="180" height="30" as="geometry"/></mxCell><mxCell id="AsCRV-HQO47f_vVxdAg8-121" value="" style="shape=partialRectangle;connectable=0;fillColor=none;top=0;left=0;bottom=0;right=0;editable=1;overflow=hidden;fontStyle=1" parent="AsCRV-HQO47f_vVxdAg8-120" vertex="1"><mxGeometry width="30" height="30" as="geometry"><mxRectangle width="30" height="30" as="alternateBounds"/></mxGeometry></mxCell><mxCell id="AsCRV-HQO47f_vVxdAg8-122" value="updated_at" style="shape=partialRectangle;connectable=0;fillColor=none;top=0;left=0;bottom=0;right=0;align=left;spacingLeft=6;overflow=hidden;" parent="AsCRV-HQO47f_vVxdAg8-120" vertex="1"><mxGeometry x="30" width="150" height="30" as="geometry"><mxRectangle width="150" height="30" as="alternateBounds"/></mxGeometry></mxCell><mxCell id="AsCRV-HQO47f_vVxdAg8-123" value="" style="shape=tableRow;horizontal=0;startSize=0;swimlaneHead=0;swimlaneBody=0;fillColor=none;collapsible=0;dropTarget=0;points=[[0,0.5],[1,0.5]];portConstraint=eastwest;top=0;left=0;right=0;bottom=0;" parent="AsCRV-HQO47f_vVxdAg8-67" vertex="1"><mxGeometry y="300" width="180" height="30" as="geometry"/></mxCell><mxCell id="AsCRV-HQO47f_vVxdAg8-124" value="FK" style="shape=partialRectangle;connectable=0;fillColor=none;top=0;left=0;bottom=0;right=0;editable=1;overflow=hidden;fontStyle=1" parent="AsCRV-HQO47f_vVxdAg8-123" vertex="1"><mxGeometry width="30" height="30" as="geometry"><mxRectangle width="30" height="30" as="alternateBounds"/></mxGeometry></mxCell><mxCell id="AsCRV-HQO47f_vVxdAg8-125" value="subcategory" style="shape=partialRectangle;connectable=0;fillColor=none;top=0;left=0;bottom=0;right=0;align=left;spacingLeft=6;overflow=hidden;" parent="AsCRV-HQO47f_vVxdAg8-123" vertex="1"><mxGeometry x="30" width="150" height="30" as="geometry"><mxRectangle width="150" height="30" as="alternateBounds"/></mxGeometry></mxCell><mxCell id="AsCRV-HQO47f_vVxdAg8-126" value="" style="shape=tableRow;horizontal=0;startSize=0;swimlaneHead=0;swimlaneBody=0;fillColor=none;collapsible=0;dropTarget=0;points=[[0,0.5],[1,0.5]];portConstraint=eastwest;top=0;left=0;right=0;bottom=0;" parent="AsCRV-HQO47f_vVxdAg8-67" vertex="1"><mxGeometry y="330" width="180" height="30" as="geometry"/></mxCell><mxCell id="AsCRV-HQO47f_vVxdAg8-127" value="" style="shape=partialRectangle;connectable=0;fillColor=none;top=0;left=0;bottom=0;right=0;editable=1;overflow=hidden;fontStyle=1" parent="AsCRV-HQO47f_vVxdAg8-126" vertex="1"><mxGeometry width="30" height="30" as="geometry"><mxRectangle width="30" height="30" as="alternateBounds"/></mxGeometry></mxCell><mxCell id="AsCRV-HQO47f_vVxdAg8-128" value="brand" style="shape=partialRectangle;connectable=0;fillColor=none;top=0;left=0;bottom=0;right=0;align=left;spacingLeft=6;overflow=hidden;" parent="AsCRV-HQO47f_vVxdAg8-126" vertex="1"><mxGeometry x="30" width="150" height="30" as="geometry"><mxRectangle width="150" height="30" as="alternateBounds"/></mxGeometry></mxCell><mxCell id="AsCRV-HQO47f_vVxdAg8-129" value="" style="shape=tableRow;horizontal=0;startSize=0;swimlaneHead=0;swimlaneBody=0;fillColor=none;collapsible=0;dropTarget=0;points=[[0,0.5],[1,0.5]];portConstraint=eastwest;top=0;left=0;right=0;bottom=0;" parent="AsCRV-HQO47f_vVxdAg8-67" vertex="1"><mxGeometry y="360" width="180" height="30" as="geometry"/></mxCell><mxCell id="AsCRV-HQO47f_vVxdAg8-130" value="" style="shape=partialRectangle;connectable=0;fillColor=none;top=0;left=0;bottom=0;right=0;editable=1;overflow=hidden;" parent="AsCRV-HQO47f_vVxdAg8-129" vertex="1"><mxGeometry width="30" height="30" as="geometry"><mxRectangle width="30" height="30" as="alternateBounds"/></mxGeometry></mxCell><mxCell id="AsCRV-HQO47f_vVxdAg8-131" value="description" style="shape=partialRectangle;connectable=0;fillColor=none;top=0;left=0;bottom=0;right=0;align=left;spacingLeft=6;overflow=hidden;" parent="AsCRV-HQO47f_vVxdAg8-129" vertex="1"><mxGeometry x="30" width="150" height="30" as="geometry"><mxRectangle width="150" height="30" as="alternateBounds"/></mxGeometry></mxCell><mxCell id="AsCRV-HQO47f_vVxdAg8-132" value="" style="shape=tableRow;horizontal=0;startSize=0;swimlaneHead=0;swimlaneBody=0;fillColor=none;collapsible=0;dropTarget=0;points=[[0,0.5],[1,0.5]];portConstraint=eastwest;top=0;left=0;right=0;bottom=0;" parent="AsCRV-HQO47f_vVxdAg8-67" vertex="1"><mxGeometry y="390" width="180" height="30" as="geometry"/></mxCell><mxCell id="AsCRV-HQO47f_vVxdAg8-133" value="" style="shape=partialRectangle;connectable=0;fillColor=none;top=0;left=0;bottom=0;right=0;editable=1;overflow=hidden;" parent="AsCRV-HQO47f_vVxdAg8-132" vertex="1"><mxGeometry width="30" height="30" as="geometry"><mxRectangle width="30" height="30" as="alternateBounds"/></mxGeometry></mxCell><mxCell id="AsCRV-HQO47f_vVxdAg8-134" value="title" style="shape=partialRectangle;connectable=0;fillColor=none;top=0;left=0;bottom=0;right=0;align=left;spacingLeft=6;overflow=hidden;" parent="AsCRV-HQO47f_vVxdAg8-132" vertex="1"><mxGeometry x="30" width="150" height="30" as="geometry"><mxRectangle width="150" height="30" as="alternateBounds"/></mxGeometry></mxCell><mxCell id="AsCRV-HQO47f_vVxdAg8-135" value="" style="shape=tableRow;horizontal=0;startSize=0;swimlaneHead=0;swimlaneBody=0;fillColor=none;collapsible=0;dropTarget=0;points=[[0,0.5],[1,0.5]];portConstraint=eastwest;top=0;left=0;right=0;bottom=1;" parent="AsCRV-HQO47f_vVxdAg8-67" vertex="1"><mxGeometry y="420" width="180" height="30" as="geometry"/></mxCell><mxCell id="AsCRV-HQO47f_vVxdAg8-136" value="" style="shape=partialRectangle;connectable=0;fillColor=none;top=0;left=0;bottom=0;right=0;fontStyle=1;overflow=hidden;" parent="AsCRV-HQO47f_vVxdAg8-135" vertex="1"><mxGeometry width="30" height="30" as="geometry"><mxRectangle width="30" height="30" as="alternateBounds"/></mxGeometry></mxCell><mxCell id="AsCRV-HQO47f_vVxdAg8-137" value="" style="shape=partialRectangle;connectable=0;fillColor=none;top=0;left=0;bottom=0;right=0;align=left;spacingLeft=6;fontStyle=5;overflow=hidden;" parent="AsCRV-HQO47f_vVxdAg8-135" vertex="1"><mxGeometry x="30" width="150" height="30" as="geometry"><mxRectangle width="150" height="30" as="alternateBounds"/></mxGeometry></mxCell><mxCell id="AsCRV-HQO47f_vVxdAg8-138" value="updated_at" style="shape=partialRectangle;connectable=0;fillColor=none;top=0;left=0;bottom=0;right=0;align=left;spacingLeft=6;overflow=hidden;" parent="1" vertex="1"><mxGeometry x="270" y="230" width="150" height="30" as="geometry"><mxRectangle width="150" height="30" as="alternateBounds"/></mxGeometry></mxCell><mxCell id="AsCRV-HQO47f_vVxdAg8-174" style="edgeStyle=orthogonalEdgeStyle;rounded=1;orthogonalLoop=1;jettySize=auto;html=1;exitX=0;exitY=0.5;exitDx=0;exitDy=0;entryX=1;entryY=0.5;entryDx=0;entryDy=0;" parent="1" source="AsCRV-HQO47f_vVxdAg8-123" target="AsCRV-HQO47f_vVxdAg8-54" edge="1"><mxGeometry relative="1" as="geometry"/></mxCell><mxCell id="AsCRV-HQO47f_vVxdAg8-175" value="Image &#10;или для каждой модели M2M" style="shape=table;startSize=40;container=1;collapsible=1;childLayout=tableLayout;fixedRows=1;rowLines=0;fontStyle=1;align=center;resizeLast=1;" parent="1" vertex="1"><mxGeometry x="1010" y="80" width="200" height="220" as="geometry"/></mxCell><mxCell id="AsCRV-HQO47f_vVxdAg8-176" value="" style="shape=tableRow;horizontal=0;startSize=0;swimlaneHead=0;swimlaneBody=0;fillColor=none;collapsible=0;dropTarget=0;points=[[0,0.5],[1,0.5]];portConstraint=eastwest;top=0;left=0;right=0;bottom=1;" parent="AsCRV-HQO47f_vVxdAg8-175" vertex="1"><mxGeometry y="40" width="200" height="30" as="geometry"/></mxCell><mxCell id="AsCRV-HQO47f_vVxdAg8-177" value="PK" style="shape=partialRectangle;connectable=0;fillColor=none;top=0;left=0;bottom=0;right=0;fontStyle=1;overflow=hidden;" parent="AsCRV-HQO47f_vVxdAg8-176" vertex="1"><mxGeometry width="30" height="30" as="geometry"><mxRectangle width="30" height="30" as="alternateBounds"/></mxGeometry></mxCell><mxCell id="AsCRV-HQO47f_vVxdAg8-178" value="ID" style="shape=partialRectangle;connectable=0;fillColor=none;top=0;left=0;bottom=0;right=0;align=left;spacingLeft=6;fontStyle=5;overflow=hidden;" parent="AsCRV-HQO47f_vVxdAg8-176" vertex="1"><mxGeometry x="30" width="170" height="30" as="geometry"><mxRectangle width="170" height="30" as="alternateBounds"/></mxGeometry></mxCell><mxCell id="AsCRV-HQO47f_vVxdAg8-179" value="" style="shape=tableRow;horizontal=0;startSize=0;swimlaneHead=0;swimlaneBody=0;fillColor=none;collapsible=0;dropTarget=0;points=[[0,0.5],[1,0.5]];portConstraint=eastwest;top=0;left=0;right=0;bottom=0;" parent="AsCRV-HQO47f_vVxdAg8-175" vertex="1"><mxGeometry y="70" width="200" height="30" as="geometry"/></mxCell><mxCell id="AsCRV-HQO47f_vVxdAg8-180" value="" style="shape=partialRectangle;connectable=0;fillColor=none;top=0;left=0;bottom=0;right=0;editable=1;overflow=hidden;" parent="AsCRV-HQO47f_vVxdAg8-179" vertex="1"><mxGeometry width="30" height="30" as="geometry"><mxRectangle width="30" height="30" as="alternateBounds"/></mxGeometry></mxCell><mxCell id="AsCRV-HQO47f_vVxdAg8-181" value="url" style="shape=partialRectangle;connectable=0;fillColor=none;top=0;left=0;bottom=0;right=0;align=left;spacingLeft=6;overflow=hidden;" parent="AsCRV-HQO47f_vVxdAg8-179" vertex="1"><mxGeometry x="30" width="170" height="30" as="geometry"><mxRectangle width="170" height="30" as="alternateBounds"/></mxGeometry></mxCell><mxCell id="AsCRV-HQO47f_vVxdAg8-182" value="" style="shape=tableRow;horizontal=0;startSize=0;swimlaneHead=0;swimlaneBody=0;fillColor=none;collapsible=0;dropTarget=0;points=[[0,0.5],[1,0.5]];portConstraint=eastwest;top=0;left=0;right=0;bottom=0;" parent="AsCRV-HQO47f_vVxdAg8-175" vertex="1"><mxGeometry y="100" width="200" height="30" as="geometry"/></mxCell><mxCell id="AsCRV-HQO47f_vVxdAg8-183" value="" style="shape=partialRectangle;connectable=0;fillColor=none;top=0;left=0;bottom=0;right=0;editable=1;overflow=hidden;" parent="AsCRV-HQO47f_vVxdAg8-182" vertex="1"><mxGeometry width="30" height="30" as="geometry"><mxRectangle width="30" height="30" as="alternateBounds"/></mxGeometry></mxCell><mxCell id="AsCRV-HQO47f_vVxdAg8-184" value="делать ли разные размеры" style="shape=partialRectangle;connectable=0;fillColor=none;top=0;left=0;bottom=0;right=0;align=left;spacingLeft=6;overflow=hidden;" parent="AsCRV-HQO47f_vVxdAg8-182" vertex="1"><mxGeometry x="30" width="170" height="30" as="geometry"><mxRectangle width="170" height="30" as="alternateBounds"/></mxGeometry></mxCell><mxCell id="AsCRV-HQO47f_vVxdAg8-185" value="" style="shape=tableRow;horizontal=0;startSize=0;swimlaneHead=0;swimlaneBody=0;fillColor=none;collapsible=0;dropTarget=0;points=[[0,0.5],[1,0.5]];portConstraint=eastwest;top=0;left=0;right=0;bottom=0;" parent="AsCRV-HQO47f_vVxdAg8-175" vertex="1"><mxGeometry y="130" width="200" height="30" as="geometry"/></mxCell><mxCell id="AsCRV-HQO47f_vVxdAg8-186" value="" style="shape=partialRectangle;connectable=0;fillColor=none;top=0;left=0;bottom=0;right=0;editable=1;overflow=hidden;" parent="AsCRV-HQO47f_vVxdAg8-185" vertex="1"><mxGeometry width="30" height="30" as="geometry"><mxRectangle width="30" height="30" as="alternateBounds"/></mxGeometry></mxCell><mxCell id="AsCRV-HQO47f_vVxdAg8-187" value="content_id" style="shape=partialRectangle;connectable=0;fillColor=none;top=0;left=0;bottom=0;right=0;align=left;spacingLeft=6;overflow=hidden;" parent="AsCRV-HQO47f_vVxdAg8-185" vertex="1"><mxGeometry x="30" width="170" height="30" as="geometry"><mxRectangle width="170" height="30" as="alternateBounds"/></mxGeometry></mxCell><mxCell id="AsCRV-HQO47f_vVxdAg8-188" value="" style="shape=tableRow;horizontal=0;startSize=0;swimlaneHead=0;swimlaneBody=0;fillColor=none;collapsible=0;dropTarget=0;points=[[0,0.5],[1,0.5]];portConstraint=eastwest;top=0;left=0;right=0;bottom=0;" parent="AsCRV-HQO47f_vVxdAg8-175" vertex="1"><mxGeometry y="160" width="200" height="30" as="geometry"/></mxCell><mxCell id="AsCRV-HQO47f_vVxdAg8-189" value="" style="shape=partialRectangle;connectable=0;fillColor=none;top=0;left=0;bottom=0;right=0;editable=1;overflow=hidden;" parent="AsCRV-HQO47f_vVxdAg8-188" vertex="1"><mxGeometry width="30" height="30" as="geometry"><mxRectangle width="30" height="30" as="alternateBounds"/></mxGeometry></mxCell><mxCell id="AsCRV-HQO47f_vVxdAg8-190" value="content_type" style="shape=partialRectangle;connectable=0;fillColor=none;top=0;left=0;bottom=0;right=0;align=left;spacingLeft=6;overflow=hidden;" parent="AsCRV-HQO47f_vVxdAg8-188" vertex="1"><mxGeometry x="30" width="170" height="30" as="geometry"><mxRectangle width="170" height="30" as="alternateBounds"/></mxGeometry></mxCell><mxCell id="AsCRV-HQO47f_vVxdAg8-191" value="" style="shape=tableRow;horizontal=0;startSize=0;swimlaneHead=0;swimlaneBody=0;fillColor=none;collapsible=0;dropTarget=0;points=[[0,0.5],[1,0.5]];portConstraint=eastwest;top=0;left=0;right=0;bottom=0;" parent="AsCRV-HQO47f_vVxdAg8-175" vertex="1"><mxGeometry y="190" width="200" height="30" as="geometry"/></mxCell><mxCell id="AsCRV-HQO47f_vVxdAg8-192" value="GFK" style="shape=partialRectangle;connectable=0;fillColor=none;top=0;left=0;bottom=0;right=0;editable=1;overflow=hidden;fontStyle=1" parent="AsCRV-HQO47f_vVxdAg8-191" vertex="1"><mxGeometry width="30" height="30" as="geometry"><mxRectangle width="30" height="30" as="alternateBounds"/></mxGeometry></mxCell><mxCell id="AsCRV-HQO47f_vVxdAg8-193" value="content_object" style="shape=partialRectangle;connectable=0;fillColor=none;top=0;left=0;bottom=0;right=0;align=left;spacingLeft=6;overflow=hidden;" parent="AsCRV-HQO47f_vVxdAg8-191" vertex="1"><mxGeometry x="30" width="170" height="30" as="geometry"><mxRectangle width="170" height="30" as="alternateBounds"/></mxGeometry></mxCell><mxCell id="AsCRV-HQO47f_vVxdAg8-194" style="edgeStyle=orthogonalEdgeStyle;orthogonalLoop=1;jettySize=auto;html=1;exitX=0;exitY=0.5;exitDx=0;exitDy=0;entryX=1;entryY=0.5;entryDx=0;entryDy=0;rounded=1;" parent="1" source="AsCRV-HQO47f_vVxdAg8-191" target="AsCRV-HQO47f_vVxdAg8-102" edge="1"><mxGeometry relative="1" as="geometry"/></mxCell><mxCell id="AsCRV-HQO47f_vVxdAg8-197" value="Order" style="shape=table;startSize=30;container=1;collapsible=1;childLayout=tableLayout;fixedRows=1;rowLines=0;fontStyle=1;align=center;resizeLast=1;" parent="1" vertex="1"><mxGeometry x="290" y="570" width="180" height="400" as="geometry"/></mxCell><mxCell id="AsCRV-HQO47f_vVxdAg8-198" value="" style="shape=tableRow;horizontal=0;startSize=0;swimlaneHead=0;swimlaneBody=0;fillColor=none;collapsible=0;dropTarget=0;points=[[0,0.5],[1,0.5]];portConstraint=eastwest;top=0;left=0;right=0;bottom=1;" parent="AsCRV-HQO47f_vVxdAg8-197" vertex="1"><mxGeometry y="30" width="180" height="30" as="geometry"/></mxCell><mxCell id="AsCRV-HQO47f_vVxdAg8-199" value="PK" style="shape=partialRectangle;connectable=0;fillColor=none;top=0;left=0;bottom=0;right=0;fontStyle=1;overflow=hidden;" parent="AsCRV-HQO47f_vVxdAg8-198" vertex="1"><mxGeometry width="40" height="30" as="geometry"><mxRectangle width="40" height="30" as="alternateBounds"/></mxGeometry></mxCell><mxCell id="AsCRV-HQO47f_vVxdAg8-200" value="ID" style="shape=partialRectangle;connectable=0;fillColor=none;top=0;left=0;bottom=0;right=0;align=left;spacingLeft=6;fontStyle=5;overflow=hidden;" parent="AsCRV-HQO47f_vVxdAg8-198" vertex="1"><mxGeometry x="40" width="140" height="30" as="geometry"><mxRectangle width="140" height="30" as="alternateBounds"/></mxGeometry></mxCell><mxCell id="AsCRV-HQO47f_vVxdAg8-201" value="" style="shape=tableRow;horizontal=0;startSize=0;swimlaneHead=0;swimlaneBody=0;fillColor=none;collapsible=0;dropTarget=0;points=[[0,0.5],[1,0.5]];portConstraint=eastwest;top=0;left=0;right=0;bottom=0;" parent="AsCRV-HQO47f_vVxdAg8-197" vertex="1"><mxGeometry y="60" width="180" height="30" as="geometry"/></mxCell><mxCell id="AsCRV-HQO47f_vVxdAg8-202" value="FK" style="shape=partialRectangle;connectable=0;fillColor=none;top=0;left=0;bottom=0;right=0;editable=1;overflow=hidden;fontStyle=1" parent="AsCRV-HQO47f_vVxdAg8-201" vertex="1"><mxGeometry width="40" height="30" as="geometry"><mxRectangle width="40" height="30" as="alternateBounds"/></mxGeometry></mxCell><mxCell id="AsCRV-HQO47f_vVxdAg8-203" value="customer_id" style="shape=partialRectangle;connectable=0;fillColor=none;top=0;left=0;bottom=0;right=0;align=left;spacingLeft=6;overflow=hidden;" parent="AsCRV-HQO47f_vVxdAg8-201" vertex="1"><mxGeometry x="40" width="140" height="30" as="geometry"><mxRectangle width="140" height="30" as="alternateBounds"/></mxGeometry></mxCell><mxCell id="AsCRV-HQO47f_vVxdAg8-204" value="" style="shape=tableRow;horizontal=0;startSize=0;swimlaneHead=0;swimlaneBody=0;fillColor=none;collapsible=0;dropTarget=0;points=[[0,0.5],[1,0.5]];portConstraint=eastwest;top=0;left=0;right=0;bottom=0;" parent="AsCRV-HQO47f_vVxdAg8-197" vertex="1"><mxGeometry y="90" width="180" height="30" as="geometry"/></mxCell><mxCell id="AsCRV-HQO47f_vVxdAg8-205" value="ENUM" style="shape=partialRectangle;connectable=0;fillColor=none;top=0;left=0;bottom=0;right=0;editable=1;overflow=hidden;fontStyle=1" parent="AsCRV-HQO47f_vVxdAg8-204" vertex="1"><mxGeometry width="40" height="30" as="geometry"><mxRectangle width="40" height="30" as="alternateBounds"/></mxGeometry></mxCell><mxCell id="AsCRV-HQO47f_vVxdAg8-206" value="status_code" style="shape=partialRectangle;connectable=0;fillColor=none;top=0;left=0;bottom=0;right=0;align=left;spacingLeft=6;overflow=hidden;" parent="AsCRV-HQO47f_vVxdAg8-204" vertex="1"><mxGeometry x="40" width="140" height="30" as="geometry"><mxRectangle width="140" height="30" as="alternateBounds"/></mxGeometry></mxCell><mxCell id="AsCRV-HQO47f_vVxdAg8-207" value="" style="shape=tableRow;horizontal=0;startSize=0;swimlaneHead=0;swimlaneBody=0;fillColor=none;collapsible=0;dropTarget=0;points=[[0,0.5],[1,0.5]];portConstraint=eastwest;top=0;left=0;right=0;bottom=0;" parent="AsCRV-HQO47f_vVxdAg8-197" vertex="1"><mxGeometry y="120" width="180" height="30" as="geometry"/></mxCell><mxCell id="AsCRV-HQO47f_vVxdAg8-208" value="" style="shape=partialRectangle;connectable=0;fillColor=none;top=0;left=0;bottom=0;right=0;editable=1;overflow=hidden;" parent="AsCRV-HQO47f_vVxdAg8-207" vertex="1"><mxGeometry width="40" height="30" as="geometry"><mxRectangle width="40" height="30" as="alternateBounds"/></mxGeometry></mxCell><mxCell id="AsCRV-HQO47f_vVxdAg8-209" value="status_description" style="shape=partialRectangle;connectable=0;fillColor=none;top=0;left=0;bottom=0;right=0;align=left;spacingLeft=6;overflow=hidden;" parent="AsCRV-HQO47f_vVxdAg8-207" vertex="1"><mxGeometry x="40" width="140" height="30" as="geometry"><mxRectangle width="140" height="30" as="alternateBounds"/></mxGeometry></mxCell><mxCell id="AsCRV-HQO47f_vVxdAg8-211" value="" style="shape=tableRow;horizontal=0;startSize=0;swimlaneHead=0;swimlaneBody=0;fillColor=none;collapsible=0;dropTarget=0;points=[[0,0.5],[1,0.5]];portConstraint=eastwest;top=0;left=0;right=0;bottom=0;" parent="AsCRV-HQO47f_vVxdAg8-197" vertex="1"><mxGeometry y="150" width="180" height="30" as="geometry"/></mxCell><mxCell id="AsCRV-HQO47f_vVxdAg8-212" value="" style="shape=partialRectangle;connectable=0;fillColor=none;top=0;left=0;bottom=0;right=0;editable=1;overflow=hidden;" parent="AsCRV-HQO47f_vVxdAg8-211" vertex="1"><mxGeometry width="40" height="30" as="geometry"><mxRectangle width="40" height="30" as="alternateBounds"/></mxGeometry></mxCell><mxCell id="AsCRV-HQO47f_vVxdAg8-213" value="date_order_placed" style="shape=partialRectangle;connectable=0;fillColor=none;top=0;left=0;bottom=0;right=0;align=left;spacingLeft=6;overflow=hidden;" parent="AsCRV-HQO47f_vVxdAg8-211" vertex="1"><mxGeometry x="40" width="140" height="30" as="geometry"><mxRectangle width="140" height="30" as="alternateBounds"/></mxGeometry></mxCell><mxCell id="AsCRV-HQO47f_vVxdAg8-214" value="" style="shape=tableRow;horizontal=0;startSize=0;swimlaneHead=0;swimlaneBody=0;fillColor=none;collapsible=0;dropTarget=0;points=[[0,0.5],[1,0.5]];portConstraint=eastwest;top=0;left=0;right=0;bottom=0;" parent="AsCRV-HQO47f_vVxdAg8-197" vertex="1"><mxGeometry y="180" width="180" height="30" as="geometry"/></mxCell><mxCell id="AsCRV-HQO47f_vVxdAg8-215" value="" style="shape=partialRectangle;connectable=0;fillColor=none;top=0;left=0;bottom=0;right=0;editable=1;overflow=hidden;" parent="AsCRV-HQO47f_vVxdAg8-214" vertex="1"><mxGeometry width="40" height="30" as="geometry"><mxRectangle width="40" height="30" as="alternateBounds"/></mxGeometry></mxCell><mxCell id="AsCRV-HQO47f_vVxdAg8-216" value="order_details" style="shape=partialRectangle;connectable=0;fillColor=none;top=0;left=0;bottom=0;right=0;align=left;spacingLeft=6;overflow=hidden;" parent="AsCRV-HQO47f_vVxdAg8-214" vertex="1"><mxGeometry x="40" width="140" height="30" as="geometry"><mxRectangle width="140" height="30" as="alternateBounds"/></mxGeometry></mxCell><mxCell id="AsCRV-HQO47f_vVxdAg8-249" value="" style="shape=tableRow;horizontal=0;startSize=0;swimlaneHead=0;swimlaneBody=0;fillColor=none;collapsible=0;dropTarget=0;points=[[0,0.5],[1,0.5]];portConstraint=eastwest;top=0;left=0;right=0;bottom=0;" parent="AsCRV-HQO47f_vVxdAg8-197" vertex="1"><mxGeometry y="210" width="180" height="30" as="geometry"/></mxCell><mxCell id="AsCRV-HQO47f_vVxdAg8-250" value="" style="shape=partialRectangle;connectable=0;fillColor=none;top=0;left=0;bottom=0;right=0;editable=1;overflow=hidden;" parent="AsCRV-HQO47f_vVxdAg8-249" vertex="1"><mxGeometry width="40" height="30" as="geometry"><mxRectangle width="40" height="30" as="alternateBounds"/></mxGeometry></mxCell><mxCell id="AsCRV-HQO47f_vVxdAg8-251" value="created_at" style="shape=partialRectangle;connectable=0;fillColor=none;top=0;left=0;bottom=0;right=0;align=left;spacingLeft=6;overflow=hidden;" parent="AsCRV-HQO47f_vVxdAg8-249" vertex="1"><mxGeometry x="40" width="140" height="30" as="geometry"><mxRectangle width="140" height="30" as="alternateBounds"/></mxGeometry></mxCell><mxCell id="AsCRV-HQO47f_vVxdAg8-252" value="" style="shape=tableRow;horizontal=0;startSize=0;swimlaneHead=0;swimlaneBody=0;fillColor=none;collapsible=0;dropTarget=0;points=[[0,0.5],[1,0.5]];portConstraint=eastwest;top=0;left=0;right=0;bottom=0;" parent="AsCRV-HQO47f_vVxdAg8-197" vertex="1"><mxGeometry y="240" width="180" height="30" as="geometry"/></mxCell><mxCell id="AsCRV-HQO47f_vVxdAg8-253" value="" style="shape=partialRectangle;connectable=0;fillColor=none;top=0;left=0;bottom=0;right=0;editable=1;overflow=hidden;" parent="AsCRV-HQO47f_vVxdAg8-252" vertex="1"><mxGeometry width="40" height="30" as="geometry"><mxRectangle width="40" height="30" as="alternateBounds"/></mxGeometry></mxCell><mxCell id="AsCRV-HQO47f_vVxdAg8-254" value="updated_at" style="shape=partialRectangle;connectable=0;fillColor=none;top=0;left=0;bottom=0;right=0;align=left;spacingLeft=6;overflow=hidden;" parent="AsCRV-HQO47f_vVxdAg8-252" vertex="1"><mxGeometry x="40" width="140" height="30" as="geometry"><mxRectangle width="140" height="30" as="alternateBounds"/></mxGeometry></mxCell><mxCell id="AsCRV-HQO47f_vVxdAg8-255" value="" style="shape=tableRow;horizontal=0;startSize=0;swimlaneHead=0;swimlaneBody=0;fillColor=none;collapsible=0;dropTarget=0;points=[[0,0.5],[1,0.5]];portConstraint=eastwest;top=0;left=0;right=0;bottom=0;" parent="AsCRV-HQO47f_vVxdAg8-197" vertex="1"><mxGeometry y="270" width="180" height="30" as="geometry"/></mxCell><mxCell id="AsCRV-HQO47f_vVxdAg8-256" value="" style="shape=partialRectangle;connectable=0;fillColor=none;top=0;left=0;bottom=0;right=0;editable=1;overflow=hidden;" parent="AsCRV-HQO47f_vVxdAg8-255" vertex="1"><mxGeometry width="40" height="30" as="geometry"><mxRectangle width="40" height="30" as="alternateBounds"/></mxGeometry></mxCell><mxCell id="AsCRV-HQO47f_vVxdAg8-257" value="shipment_tracking_id" style="shape=partialRectangle;connectable=0;fillColor=none;top=0;left=0;bottom=0;right=0;align=left;spacingLeft=6;overflow=hidden;" parent="AsCRV-HQO47f_vVxdAg8-255" vertex="1"><mxGeometry x="40" width="140" height="30" as="geometry"><mxRectangle width="140" height="30" as="alternateBounds"/></mxGeometry></mxCell><mxCell id="AsCRV-HQO47f_vVxdAg8-258" value="" style="shape=tableRow;horizontal=0;startSize=0;swimlaneHead=0;swimlaneBody=0;fillColor=none;collapsible=0;dropTarget=0;points=[[0,0.5],[1,0.5]];portConstraint=eastwest;top=0;left=0;right=0;bottom=0;" parent="AsCRV-HQO47f_vVxdAg8-197" vertex="1"><mxGeometry y="300" width="180" height="30" as="geometry"/></mxCell><mxCell id="AsCRV-HQO47f_vVxdAg8-259" value="" style="shape=partialRectangle;connectable=0;fillColor=none;top=0;left=0;bottom=0;right=0;editable=1;overflow=hidden;" parent="AsCRV-HQO47f_vVxdAg8-258" vertex="1"><mxGeometry width="40" height="30" as="geometry"><mxRectangle width="40" height="30" as="alternateBounds"/></mxGeometry></mxCell><mxCell id="AsCRV-HQO47f_vVxdAg8-260" value="shipment_date" style="shape=partialRectangle;connectable=0;fillColor=none;top=0;left=0;bottom=0;right=0;align=left;spacingLeft=6;overflow=hidden;" parent="AsCRV-HQO47f_vVxdAg8-258" vertex="1"><mxGeometry x="40" width="140" height="30" as="geometry"><mxRectangle width="140" height="30" as="alternateBounds"/></mxGeometry></mxCell><mxCell id="AsCRV-HQO47f_vVxdAg8-264" value="" style="shape=tableRow;horizontal=0;startSize=0;swimlaneHead=0;swimlaneBody=0;fillColor=none;collapsible=0;dropTarget=0;points=[[0,0.5],[1,0.5]];portConstraint=eastwest;top=0;left=0;right=0;bottom=0;" parent="AsCRV-HQO47f_vVxdAg8-197" vertex="1"><mxGeometry y="330" width="180" height="30" as="geometry"/></mxCell><mxCell id="AsCRV-HQO47f_vVxdAg8-265" value="" style="shape=partialRectangle;connectable=0;fillColor=none;top=0;left=0;bottom=0;right=0;editable=1;overflow=hidden;" parent="AsCRV-HQO47f_vVxdAg8-264" vertex="1"><mxGeometry width="40" height="30" as="geometry"><mxRectangle width="40" height="30" as="alternateBounds"/></mxGeometry></mxCell><mxCell id="AsCRV-HQO47f_vVxdAg8-266" value="shipment_details" style="shape=partialRectangle;connectable=0;fillColor=none;top=0;left=0;bottom=0;right=0;align=left;spacingLeft=6;overflow=hidden;" parent="AsCRV-HQO47f_vVxdAg8-264" vertex="1"><mxGeometry x="40" width="140" height="30" as="geometry"><mxRectangle width="140" height="30" as="alternateBounds"/></mxGeometry></mxCell><mxCell id="AsCRV-HQO47f_vVxdAg8-267" value="" style="shape=tableRow;horizontal=0;startSize=0;swimlaneHead=0;swimlaneBody=0;fillColor=none;collapsible=0;dropTarget=0;points=[[0,0.5],[1,0.5]];portConstraint=eastwest;top=0;left=0;right=0;bottom=0;" parent="AsCRV-HQO47f_vVxdAg8-197" vertex="1"><mxGeometry y="360" width="180" height="30" as="geometry"/></mxCell><mxCell id="AsCRV-HQO47f_vVxdAg8-268" value="" style="shape=partialRectangle;connectable=0;fillColor=none;top=0;left=0;bottom=0;right=0;editable=1;overflow=hidden;" parent="AsCRV-HQO47f_vVxdAg8-267" vertex="1"><mxGeometry width="40" height="30" as="geometry"><mxRectangle width="40" height="30" as="alternateBounds"/></mxGeometry></mxCell><mxCell id="AsCRV-HQO47f_vVxdAg8-269" value="order_details" style="shape=partialRectangle;connectable=0;fillColor=none;top=0;left=0;bottom=0;right=0;align=left;spacingLeft=6;overflow=hidden;" parent="AsCRV-HQO47f_vVxdAg8-267" vertex="1"><mxGeometry x="40" width="140" height="30" as="geometry"><mxRectangle width="140" height="30" as="alternateBounds"/></mxGeometry></mxCell><mxCell id="AsCRV-HQO47f_vVxdAg8-210" style="edgeStyle=orthogonalEdgeStyle;rounded=1;orthogonalLoop=1;jettySize=auto;html=1;exitX=0;exitY=0.5;exitDx=0;exitDy=0;entryX=1;entryY=0.5;entryDx=0;entryDy=0;" parent="1" source="AsCRV-HQO47f_vVxdAg8-201" target="2e49270ec7c68f3f-81" edge="1"><mxGeometry relative="1" as="geometry"/></mxCell><mxCell id="AsCRV-HQO47f_vVxdAg8-217" value="OrderItem" style="shape=table;startSize=30;container=1;collapsible=1;childLayout=tableLayout;fixedRows=1;rowLines=0;fontStyle=1;align=center;resizeLast=1;" parent="1" vertex="1"><mxGeometry x="550" y="570" width="180" height="310" as="geometry"/></mxCell><mxCell id="AsCRV-HQO47f_vVxdAg8-218" value="" style="shape=tableRow;horizontal=0;startSize=0;swimlaneHead=0;swimlaneBody=0;fillColor=none;collapsible=0;dropTarget=0;points=[[0,0.5],[1,0.5]];portConstraint=eastwest;top=0;left=0;right=0;bottom=1;" parent="AsCRV-HQO47f_vVxdAg8-217" vertex="1"><mxGeometry y="30" width="180" height="30" as="geometry"/></mxCell><mxCell id="AsCRV-HQO47f_vVxdAg8-219" value="PK" style="shape=partialRectangle;connectable=0;fillColor=none;top=0;left=0;bottom=0;right=0;fontStyle=1;overflow=hidden;" parent="AsCRV-HQO47f_vVxdAg8-218" vertex="1"><mxGeometry width="40" height="30" as="geometry"><mxRectangle width="40" height="30" as="alternateBounds"/></mxGeometry></mxCell><mxCell id="AsCRV-HQO47f_vVxdAg8-220" value="ID" style="shape=partialRectangle;connectable=0;fillColor=none;top=0;left=0;bottom=0;right=0;align=left;spacingLeft=6;fontStyle=5;overflow=hidden;" parent="AsCRV-HQO47f_vVxdAg8-218" vertex="1"><mxGeometry x="40" width="140" height="30" as="geometry"><mxRectangle width="140" height="30" as="alternateBounds"/></mxGeometry></mxCell><mxCell id="AsCRV-HQO47f_vVxdAg8-221" value="" style="shape=tableRow;horizontal=0;startSize=0;swimlaneHead=0;swimlaneBody=0;fillColor=none;collapsible=0;dropTarget=0;points=[[0,0.5],[1,0.5]];portConstraint=eastwest;top=0;left=0;right=0;bottom=0;" parent="AsCRV-HQO47f_vVxdAg8-217" vertex="1"><mxGeometry y="60" width="180" height="30" as="geometry"/></mxCell><mxCell id="AsCRV-HQO47f_vVxdAg8-222" value="FK" style="shape=partialRectangle;connectable=0;fillColor=none;top=0;left=0;bottom=0;right=0;editable=1;overflow=hidden;fontStyle=1" parent="AsCRV-HQO47f_vVxdAg8-221" vertex="1"><mxGeometry width="40" height="30" as="geometry"><mxRectangle width="40" height="30" as="alternateBounds"/></mxGeometry></mxCell><mxCell id="AsCRV-HQO47f_vVxdAg8-223" value="product_id" style="shape=partialRectangle;connectable=0;fillColor=none;top=0;left=0;bottom=0;right=0;align=left;spacingLeft=6;overflow=hidden;" parent="AsCRV-HQO47f_vVxdAg8-221" vertex="1"><mxGeometry x="40" width="140" height="30" as="geometry"><mxRectangle width="140" height="30" as="alternateBounds"/></mxGeometry></mxCell><mxCell id="AsCRV-HQO47f_vVxdAg8-224" value="" style="shape=tableRow;horizontal=0;startSize=0;swimlaneHead=0;swimlaneBody=0;fillColor=none;collapsible=0;dropTarget=0;points=[[0,0.5],[1,0.5]];portConstraint=eastwest;top=0;left=0;right=0;bottom=0;" parent="AsCRV-HQO47f_vVxdAg8-217" vertex="1"><mxGeometry y="90" width="180" height="30" as="geometry"/></mxCell><mxCell id="AsCRV-HQO47f_vVxdAg8-225" value="FK" style="shape=partialRectangle;connectable=0;fillColor=none;top=0;left=0;bottom=0;right=0;editable=1;overflow=hidden;fontStyle=1" parent="AsCRV-HQO47f_vVxdAg8-224" vertex="1"><mxGeometry width="40" height="30" as="geometry"><mxRectangle width="40" height="30" as="alternateBounds"/></mxGeometry></mxCell><mxCell id="AsCRV-HQO47f_vVxdAg8-226" value="order_id" style="shape=partialRectangle;connectable=0;fillColor=none;top=0;left=0;bottom=0;right=0;align=left;spacingLeft=6;overflow=hidden;" parent="AsCRV-HQO47f_vVxdAg8-224" vertex="1"><mxGeometry x="40" width="140" height="30" as="geometry"><mxRectangle width="140" height="30" as="alternateBounds"/></mxGeometry></mxCell><mxCell id="AsCRV-HQO47f_vVxdAg8-227" value="" style="shape=tableRow;horizontal=0;startSize=0;swimlaneHead=0;swimlaneBody=0;fillColor=none;collapsible=0;dropTarget=0;points=[[0,0.5],[1,0.5]];portConstraint=eastwest;top=0;left=0;right=0;bottom=0;" parent="AsCRV-HQO47f_vVxdAg8-217" vertex="1"><mxGeometry y="120" width="180" height="30" as="geometry"/></mxCell><mxCell id="AsCRV-HQO47f_vVxdAg8-228" value="ENUM" style="shape=partialRectangle;connectable=0;fillColor=none;top=0;left=0;bottom=0;right=0;editable=1;overflow=hidden;fontStyle=1" parent="AsCRV-HQO47f_vVxdAg8-227" vertex="1"><mxGeometry width="40" height="30" as="geometry"><mxRectangle width="40" height="30" as="alternateBounds"/></mxGeometry></mxCell><mxCell id="AsCRV-HQO47f_vVxdAg8-229" value="status_code" style="shape=partialRectangle;connectable=0;fillColor=none;top=0;left=0;bottom=0;right=0;align=left;spacingLeft=6;overflow=hidden;" parent="AsCRV-HQO47f_vVxdAg8-227" vertex="1"><mxGeometry x="40" width="140" height="30" as="geometry"><mxRectangle width="140" height="30" as="alternateBounds"/></mxGeometry></mxCell><mxCell id="AsCRV-HQO47f_vVxdAg8-234" value="" style="shape=tableRow;horizontal=0;startSize=0;swimlaneHead=0;swimlaneBody=0;fillColor=none;collapsible=0;dropTarget=0;points=[[0,0.5],[1,0.5]];portConstraint=eastwest;top=0;left=0;right=0;bottom=0;" parent="AsCRV-HQO47f_vVxdAg8-217" vertex="1"><mxGeometry y="150" width="180" height="30" as="geometry"/></mxCell><mxCell id="AsCRV-HQO47f_vVxdAg8-235" value="" style="shape=partialRectangle;connectable=0;fillColor=none;top=0;left=0;bottom=0;right=0;editable=1;overflow=hidden;fontStyle=1" parent="AsCRV-HQO47f_vVxdAg8-234" vertex="1"><mxGeometry width="40" height="30" as="geometry"><mxRectangle width="40" height="30" as="alternateBounds"/></mxGeometry></mxCell><mxCell id="AsCRV-HQO47f_vVxdAg8-236" value="quantity" style="shape=partialRectangle;connectable=0;fillColor=none;top=0;left=0;bottom=0;right=0;align=left;spacingLeft=6;overflow=hidden;" parent="AsCRV-HQO47f_vVxdAg8-234" vertex="1"><mxGeometry x="40" width="140" height="30" as="geometry"><mxRectangle width="140" height="30" as="alternateBounds"/></mxGeometry></mxCell><mxCell id="AsCRV-HQO47f_vVxdAg8-237" value="" style="shape=tableRow;horizontal=0;startSize=0;swimlaneHead=0;swimlaneBody=0;fillColor=none;collapsible=0;dropTarget=0;points=[[0,0.5],[1,0.5]];portConstraint=eastwest;top=0;left=0;right=0;bottom=0;" parent="AsCRV-HQO47f_vVxdAg8-217" vertex="1"><mxGeometry y="180" width="180" height="30" as="geometry"/></mxCell><mxCell id="AsCRV-HQO47f_vVxdAg8-238" value="" style="shape=partialRectangle;connectable=0;fillColor=none;top=0;left=0;bottom=0;right=0;editable=1;overflow=hidden;fontStyle=1" parent="AsCRV-HQO47f_vVxdAg8-237" vertex="1"><mxGeometry width="40" height="30" as="geometry"><mxRectangle width="40" height="30" as="alternateBounds"/></mxGeometry></mxCell><mxCell id="AsCRV-HQO47f_vVxdAg8-239" value="price" style="shape=partialRectangle;connectable=0;fillColor=none;top=0;left=0;bottom=0;right=0;align=left;spacingLeft=6;overflow=hidden;" parent="AsCRV-HQO47f_vVxdAg8-237" vertex="1"><mxGeometry x="40" width="140" height="30" as="geometry"><mxRectangle width="140" height="30" as="alternateBounds"/></mxGeometry></mxCell><mxCell id="AsCRV-HQO47f_vVxdAg8-240" value="" style="shape=tableRow;horizontal=0;startSize=0;swimlaneHead=0;swimlaneBody=0;fillColor=none;collapsible=0;dropTarget=0;points=[[0,0.5],[1,0.5]];portConstraint=eastwest;top=0;left=0;right=0;bottom=0;" parent="AsCRV-HQO47f_vVxdAg8-217" vertex="1"><mxGeometry y="210" width="180" height="30" as="geometry"/></mxCell><mxCell id="AsCRV-HQO47f_vVxdAg8-241" value="" style="shape=partialRectangle;connectable=0;fillColor=none;top=0;left=0;bottom=0;right=0;editable=1;overflow=hidden;fontStyle=1" parent="AsCRV-HQO47f_vVxdAg8-240" vertex="1"><mxGeometry width="40" height="30" as="geometry"><mxRectangle width="40" height="30" as="alternateBounds"/></mxGeometry></mxCell><mxCell id="AsCRV-HQO47f_vVxdAg8-242" value="details" style="shape=partialRectangle;connectable=0;fillColor=none;top=0;left=0;bottom=0;right=0;align=left;spacingLeft=6;overflow=hidden;" parent="AsCRV-HQO47f_vVxdAg8-240" vertex="1"><mxGeometry x="40" width="140" height="30" as="geometry"><mxRectangle width="140" height="30" as="alternateBounds"/></mxGeometry></mxCell><mxCell id="AsCRV-HQO47f_vVxdAg8-243" value="" style="shape=tableRow;horizontal=0;startSize=0;swimlaneHead=0;swimlaneBody=0;fillColor=none;collapsible=0;dropTarget=0;points=[[0,0.5],[1,0.5]];portConstraint=eastwest;top=0;left=0;right=0;bottom=0;" parent="AsCRV-HQO47f_vVxdAg8-217" vertex="1"><mxGeometry y="240" width="180" height="30" as="geometry"/></mxCell><mxCell id="AsCRV-HQO47f_vVxdAg8-244" value="" style="shape=partialRectangle;connectable=0;fillColor=none;top=0;left=0;bottom=0;right=0;editable=1;overflow=hidden;fontStyle=1" parent="AsCRV-HQO47f_vVxdAg8-243" vertex="1"><mxGeometry width="40" height="30" as="geometry"><mxRectangle width="40" height="30" as="alternateBounds"/></mxGeometry></mxCell><mxCell id="AsCRV-HQO47f_vVxdAg8-245" value="ordered_at" style="shape=partialRectangle;connectable=0;fillColor=none;top=0;left=0;bottom=0;right=0;align=left;spacingLeft=6;overflow=hidden;" parent="AsCRV-HQO47f_vVxdAg8-243" vertex="1"><mxGeometry x="40" width="140" height="30" as="geometry"><mxRectangle width="140" height="30" as="alternateBounds"/></mxGeometry></mxCell><mxCell id="AsCRV-HQO47f_vVxdAg8-246" value="" style="shape=tableRow;horizontal=0;startSize=0;swimlaneHead=0;swimlaneBody=0;fillColor=none;collapsible=0;dropTarget=0;points=[[0,0.5],[1,0.5]];portConstraint=eastwest;top=0;left=0;right=0;bottom=0;" parent="AsCRV-HQO47f_vVxdAg8-217" vertex="1"><mxGeometry y="270" width="180" height="30" as="geometry"/></mxCell><mxCell id="AsCRV-HQO47f_vVxdAg8-247" value="" style="shape=partialRectangle;connectable=0;fillColor=none;top=0;left=0;bottom=0;right=0;editable=1;overflow=hidden;fontStyle=1" parent="AsCRV-HQO47f_vVxdAg8-246" vertex="1"><mxGeometry width="40" height="30" as="geometry"><mxRectangle width="40" height="30" as="alternateBounds"/></mxGeometry></mxCell><mxCell id="AsCRV-HQO47f_vVxdAg8-248" value="updated_at" style="shape=partialRectangle;connectable=0;fillColor=none;top=0;left=0;bottom=0;right=0;align=left;spacingLeft=6;overflow=hidden;" parent="AsCRV-HQO47f_vVxdAg8-246" vertex="1"><mxGeometry x="40" width="140" height="30" as="geometry"><mxRectangle width="140" height="30" as="alternateBounds"/></mxGeometry></mxCell><mxCell id="AsCRV-HQO47f_vVxdAg8-230" style="edgeStyle=orthogonalEdgeStyle;rounded=1;orthogonalLoop=1;jettySize=auto;html=1;exitX=0;exitY=0.5;exitDx=0;exitDy=0;entryX=1;entryY=0.5;entryDx=0;entryDy=0;" parent="1" source="AsCRV-HQO47f_vVxdAg8-224" target="AsCRV-HQO47f_vVxdAg8-198" edge="1"><mxGeometry relative="1" as="geometry"/></mxCell><mxCell id="AsCRV-HQO47f_vVxdAg8-233" style="edgeStyle=orthogonalEdgeStyle;orthogonalLoop=1;jettySize=auto;html=1;exitX=1;exitY=0.5;exitDx=0;exitDy=0;entryX=0;entryY=0.5;entryDx=0;entryDy=0;rounded=1;" parent="1" source="AsCRV-HQO47f_vVxdAg8-218" target="AsCRV-HQO47f_vVxdAg8-68" edge="1"><mxGeometry relative="1" as="geometry"/></mxCell><mxCell id="AsCRV-HQO47f_vVxdAg8-270" value="Invoice" style="shape=table;startSize=30;container=1;collapsible=1;childLayout=tableLayout;fixedRows=1;rowLines=0;fontStyle=1;align=center;resizeLast=1;" parent="1" vertex="1"><mxGeometry x="310" y="1050" width="180" height="220" as="geometry"/></mxCell><mxCell id="AsCRV-HQO47f_vVxdAg8-271" value="" style="shape=tableRow;horizontal=0;startSize=0;swimlaneHead=0;swimlaneBody=0;fillColor=none;collapsible=0;dropTarget=0;points=[[0,0.5],[1,0.5]];portConstraint=eastwest;top=0;left=0;right=0;bottom=1;" parent="AsCRV-HQO47f_vVxdAg8-270" vertex="1"><mxGeometry y="30" width="180" height="30" as="geometry"/></mxCell><mxCell id="AsCRV-HQO47f_vVxdAg8-272" value="PK" style="shape=partialRectangle;connectable=0;fillColor=none;top=0;left=0;bottom=0;right=0;fontStyle=1;overflow=hidden;" parent="AsCRV-HQO47f_vVxdAg8-271" vertex="1"><mxGeometry width="30" height="30" as="geometry"><mxRectangle width="30" height="30" as="alternateBounds"/></mxGeometry></mxCell><mxCell id="AsCRV-HQO47f_vVxdAg8-273" value="invoice_number" style="shape=partialRectangle;connectable=0;fillColor=none;top=0;left=0;bottom=0;right=0;align=left;spacingLeft=6;fontStyle=5;overflow=hidden;" parent="AsCRV-HQO47f_vVxdAg8-271" vertex="1"><mxGeometry x="30" width="150" height="30" as="geometry"><mxRectangle width="150" height="30" as="alternateBounds"/></mxGeometry></mxCell><mxCell id="AsCRV-HQO47f_vVxdAg8-274" value="" style="shape=tableRow;horizontal=0;startSize=0;swimlaneHead=0;swimlaneBody=0;fillColor=none;collapsible=0;dropTarget=0;points=[[0,0.5],[1,0.5]];portConstraint=eastwest;top=0;left=0;right=0;bottom=0;" parent="AsCRV-HQO47f_vVxdAg8-270" vertex="1"><mxGeometry y="60" width="180" height="30" as="geometry"/></mxCell><mxCell id="AsCRV-HQO47f_vVxdAg8-275" value="FK" style="shape=partialRectangle;connectable=0;fillColor=none;top=0;left=0;bottom=0;right=0;editable=1;overflow=hidden;fontStyle=1" parent="AsCRV-HQO47f_vVxdAg8-274" vertex="1"><mxGeometry width="30" height="30" as="geometry"><mxRectangle width="30" height="30" as="alternateBounds"/></mxGeometry></mxCell><mxCell id="AsCRV-HQO47f_vVxdAg8-276" value="order_id" style="shape=partialRectangle;connectable=0;fillColor=none;top=0;left=0;bottom=0;right=0;align=left;spacingLeft=6;overflow=hidden;" parent="AsCRV-HQO47f_vVxdAg8-274" vertex="1"><mxGeometry x="30" width="150" height="30" as="geometry"><mxRectangle width="150" height="30" as="alternateBounds"/></mxGeometry></mxCell><mxCell id="AsCRV-HQO47f_vVxdAg8-277" value="" style="shape=tableRow;horizontal=0;startSize=0;swimlaneHead=0;swimlaneBody=0;fillColor=none;collapsible=0;dropTarget=0;points=[[0,0.5],[1,0.5]];portConstraint=eastwest;top=0;left=0;right=0;bottom=0;" parent="AsCRV-HQO47f_vVxdAg8-270" vertex="1"><mxGeometry y="90" width="180" height="30" as="geometry"/></mxCell><mxCell id="AsCRV-HQO47f_vVxdAg8-278" value="" style="shape=partialRectangle;connectable=0;fillColor=none;top=0;left=0;bottom=0;right=0;editable=1;overflow=hidden;" parent="AsCRV-HQO47f_vVxdAg8-277" vertex="1"><mxGeometry width="30" height="30" as="geometry"><mxRectangle width="30" height="30" as="alternateBounds"/></mxGeometry></mxCell><mxCell id="AsCRV-HQO47f_vVxdAg8-279" value="status_code" style="shape=partialRectangle;connectable=0;fillColor=none;top=0;left=0;bottom=0;right=0;align=left;spacingLeft=6;overflow=hidden;" parent="AsCRV-HQO47f_vVxdAg8-277" vertex="1"><mxGeometry x="30" width="150" height="30" as="geometry"><mxRectangle width="150" height="30" as="alternateBounds"/></mxGeometry></mxCell><mxCell id="AsCRV-HQO47f_vVxdAg8-280" value="" style="shape=tableRow;horizontal=0;startSize=0;swimlaneHead=0;swimlaneBody=0;fillColor=none;collapsible=0;dropTarget=0;points=[[0,0.5],[1,0.5]];portConstraint=eastwest;top=0;left=0;right=0;bottom=0;" parent="AsCRV-HQO47f_vVxdAg8-270" vertex="1"><mxGeometry y="120" width="180" height="30" as="geometry"/></mxCell><mxCell id="AsCRV-HQO47f_vVxdAg8-281" value="" style="shape=partialRectangle;connectable=0;fillColor=none;top=0;left=0;bottom=0;right=0;editable=1;overflow=hidden;" parent="AsCRV-HQO47f_vVxdAg8-280" vertex="1"><mxGeometry width="30" height="30" as="geometry"><mxRectangle width="30" height="30" as="alternateBounds"/></mxGeometry></mxCell><mxCell id="AsCRV-HQO47f_vVxdAg8-282" value="status_description" style="shape=partialRectangle;connectable=0;fillColor=none;top=0;left=0;bottom=0;right=0;align=left;spacingLeft=6;overflow=hidden;" parent="AsCRV-HQO47f_vVxdAg8-280" vertex="1"><mxGeometry x="30" width="150" height="30" as="geometry"><mxRectangle width="150" height="30" as="alternateBounds"/></mxGeometry></mxCell><mxCell id="AsCRV-HQO47f_vVxdAg8-283" value="" style="shape=tableRow;horizontal=0;startSize=0;swimlaneHead=0;swimlaneBody=0;fillColor=none;collapsible=0;dropTarget=0;points=[[0,0.5],[1,0.5]];portConstraint=eastwest;top=0;left=0;right=0;bottom=0;" parent="AsCRV-HQO47f_vVxdAg8-270" vertex="1"><mxGeometry y="150" width="180" height="30" as="geometry"/></mxCell><mxCell id="AsCRV-HQO47f_vVxdAg8-284" value="" style="shape=partialRectangle;connectable=0;fillColor=none;top=0;left=0;bottom=0;right=0;editable=1;overflow=hidden;" parent="AsCRV-HQO47f_vVxdAg8-283" vertex="1"><mxGeometry width="30" height="30" as="geometry"><mxRectangle width="30" height="30" as="alternateBounds"/></mxGeometry></mxCell><mxCell id="AsCRV-HQO47f_vVxdAg8-285" value="invoice_date" style="shape=partialRectangle;connectable=0;fillColor=none;top=0;left=0;bottom=0;right=0;align=left;spacingLeft=6;overflow=hidden;" parent="AsCRV-HQO47f_vVxdAg8-283" vertex="1"><mxGeometry x="30" width="150" height="30" as="geometry"><mxRectangle width="150" height="30" as="alternateBounds"/></mxGeometry></mxCell><mxCell id="AsCRV-HQO47f_vVxdAg8-286" value="" style="shape=tableRow;horizontal=0;startSize=0;swimlaneHead=0;swimlaneBody=0;fillColor=none;collapsible=0;dropTarget=0;points=[[0,0.5],[1,0.5]];portConstraint=eastwest;top=0;left=0;right=0;bottom=0;" parent="AsCRV-HQO47f_vVxdAg8-270" vertex="1"><mxGeometry y="180" width="180" height="30" as="geometry"/></mxCell><mxCell id="AsCRV-HQO47f_vVxdAg8-287" value="" style="shape=partialRectangle;connectable=0;fillColor=none;top=0;left=0;bottom=0;right=0;editable=1;overflow=hidden;" parent="AsCRV-HQO47f_vVxdAg8-286" vertex="1"><mxGeometry width="30" height="30" as="geometry"><mxRectangle width="30" height="30" as="alternateBounds"/></mxGeometry></mxCell><mxCell id="AsCRV-HQO47f_vVxdAg8-288" value="invoice_details" style="shape=partialRectangle;connectable=0;fillColor=none;top=0;left=0;bottom=0;right=0;align=left;spacingLeft=6;overflow=hidden;" parent="AsCRV-HQO47f_vVxdAg8-286" vertex="1"><mxGeometry x="30" width="150" height="30" as="geometry"><mxRectangle width="150" height="30" as="alternateBounds"/></mxGeometry></mxCell><mxCell id="AsCRV-HQO47f_vVxdAg8-289" style="edgeStyle=orthogonalEdgeStyle;rounded=1;orthogonalLoop=1;jettySize=auto;html=1;exitX=1;exitY=0.5;exitDx=0;exitDy=0;entryX=0;entryY=0.5;entryDx=0;entryDy=0;" parent="1" source="AsCRV-HQO47f_vVxdAg8-274" target="AsCRV-HQO47f_vVxdAg8-218" edge="1"><mxGeometry relative="1" as="geometry"/></mxCell><mxCell id="AsCRV-HQO47f_vVxdAg8-290" value="Payments" style="shape=table;startSize=30;container=1;collapsible=1;childLayout=tableLayout;fixedRows=1;rowLines=0;fontStyle=1;align=center;resizeLast=1;" parent="1" vertex="1"><mxGeometry x="570" y="1050" width="180" height="160" as="geometry"/></mxCell><mxCell id="AsCRV-HQO47f_vVxdAg8-291" value="" style="shape=tableRow;horizontal=0;startSize=0;swimlaneHead=0;swimlaneBody=0;fillColor=none;collapsible=0;dropTarget=0;points=[[0,0.5],[1,0.5]];portConstraint=eastwest;top=0;left=0;right=0;bottom=1;" parent="AsCRV-HQO47f_vVxdAg8-290" vertex="1"><mxGeometry y="30" width="180" height="30" as="geometry"/></mxCell><mxCell id="AsCRV-HQO47f_vVxdAg8-292" value="PK" style="shape=partialRectangle;connectable=0;fillColor=none;top=0;left=0;bottom=0;right=0;fontStyle=1;overflow=hidden;" parent="AsCRV-HQO47f_vVxdAg8-291" vertex="1"><mxGeometry width="30" height="30" as="geometry"><mxRectangle width="30" height="30" as="alternateBounds"/></mxGeometry></mxCell><mxCell id="AsCRV-HQO47f_vVxdAg8-293" value="ID" style="shape=partialRectangle;connectable=0;fillColor=none;top=0;left=0;bottom=0;right=0;align=left;spacingLeft=6;fontStyle=5;overflow=hidden;" parent="AsCRV-HQO47f_vVxdAg8-291" vertex="1"><mxGeometry x="30" width="150" height="30" as="geometry"><mxRectangle width="150" height="30" as="alternateBounds"/></mxGeometry></mxCell><mxCell id="AsCRV-HQO47f_vVxdAg8-294" value="" style="shape=tableRow;horizontal=0;startSize=0;swimlaneHead=0;swimlaneBody=0;fillColor=none;collapsible=0;dropTarget=0;points=[[0,0.5],[1,0.5]];portConstraint=eastwest;top=0;left=0;right=0;bottom=0;" parent="AsCRV-HQO47f_vVxdAg8-290" vertex="1"><mxGeometry y="60" width="180" height="30" as="geometry"/></mxCell><mxCell id="AsCRV-HQO47f_vVxdAg8-295" value="FK" style="shape=partialRectangle;connectable=0;fillColor=none;top=0;left=0;bottom=0;right=0;editable=1;overflow=hidden;fontStyle=1" parent="AsCRV-HQO47f_vVxdAg8-294" vertex="1"><mxGeometry width="30" height="30" as="geometry"><mxRectangle width="30" height="30" as="alternateBounds"/></mxGeometry></mxCell><mxCell id="AsCRV-HQO47f_vVxdAg8-296" value="invoice_number" style="shape=partialRectangle;connectable=0;fillColor=none;top=0;left=0;bottom=0;right=0;align=left;spacingLeft=6;overflow=hidden;" parent="AsCRV-HQO47f_vVxdAg8-294" vertex="1"><mxGeometry x="30" width="150" height="30" as="geometry"><mxRectangle width="150" height="30" as="alternateBounds"/></mxGeometry></mxCell><mxCell id="AsCRV-HQO47f_vVxdAg8-297" value="" style="shape=tableRow;horizontal=0;startSize=0;swimlaneHead=0;swimlaneBody=0;fillColor=none;collapsible=0;dropTarget=0;points=[[0,0.5],[1,0.5]];portConstraint=eastwest;top=0;left=0;right=0;bottom=0;" parent="AsCRV-HQO47f_vVxdAg8-290" vertex="1"><mxGeometry y="90" width="180" height="30" as="geometry"/></mxCell><mxCell id="AsCRV-HQO47f_vVxdAg8-298" value="" style="shape=partialRectangle;connectable=0;fillColor=none;top=0;left=0;bottom=0;right=0;editable=1;overflow=hidden;" parent="AsCRV-HQO47f_vVxdAg8-297" vertex="1"><mxGeometry width="30" height="30" as="geometry"><mxRectangle width="30" height="30" as="alternateBounds"/></mxGeometry></mxCell><mxCell id="AsCRV-HQO47f_vVxdAg8-299" value="payment_date" style="shape=partialRectangle;connectable=0;fillColor=none;top=0;left=0;bottom=0;right=0;align=left;spacingLeft=6;overflow=hidden;" parent="AsCRV-HQO47f_vVxdAg8-297" vertex="1"><mxGeometry x="30" width="150" height="30" as="geometry"><mxRectangle width="150" height="30" as="alternateBounds"/></mxGeometry></mxCell><mxCell id="AsCRV-HQO47f_vVxdAg8-300" value="" style="shape=tableRow;horizontal=0;startSize=0;swimlaneHead=0;swimlaneBody=0;fillColor=none;collapsible=0;dropTarget=0;points=[[0,0.5],[1,0.5]];portConstraint=eastwest;top=0;left=0;right=0;bottom=0;" parent="AsCRV-HQO47f_vVxdAg8-290" vertex="1"><mxGeometry y="120" width="180" height="30" as="geometry"/></mxCell><mxCell id="AsCRV-HQO47f_vVxdAg8-301" value="" style="shape=partialRectangle;connectable=0;fillColor=none;top=0;left=0;bottom=0;right=0;editable=1;overflow=hidden;" parent="AsCRV-HQO47f_vVxdAg8-300" vertex="1"><mxGeometry width="30" height="30" as="geometry"><mxRectangle width="30" height="30" as="alternateBounds"/></mxGeometry></mxCell><mxCell id="AsCRV-HQO47f_vVxdAg8-302" value="payment_amount" style="shape=partialRectangle;connectable=0;fillColor=none;top=0;left=0;bottom=0;right=0;align=left;spacingLeft=6;overflow=hidden;" parent="AsCRV-HQO47f_vVxdAg8-300" vertex="1"><mxGeometry x="30" width="150" height="30" as="geometry"><mxRectangle width="150" height="30" as="alternateBounds"/></mxGeometry></mxCell><mxCell id="AsCRV-HQO47f_vVxdAg8-303" style="edgeStyle=orthogonalEdgeStyle;rounded=1;orthogonalLoop=1;jettySize=auto;html=1;exitX=0;exitY=0.5;exitDx=0;exitDy=0;entryX=1;entryY=0.5;entryDx=0;entryDy=0;" parent="1" source="AsCRV-HQO47f_vVxdAg8-294" target="AsCRV-HQO47f_vVxdAg8-271" edge="1"><mxGeometry relative="1" as="geometry"/></mxCell></root></mxGraphModel></diagram></mxfile>